<svg xmlns="http://www.w3.org/2000/svg" style="position: absolute; width: 580px; height: 400px; left: 0px; top: 0px; " version="1.1"><g></g><g><g transform="translate(73,20)"><g><path d="M0.5,0.5 L0.5,5.5" fill="none" stroke-dasharray="none" stroke-width="1" stroke-opacity="1" stroke="#DADADA" transform="translate(0,347)"></path><path d="M0.5,347.5 L0.5,347.5 L0.5,0.5" fill="none" stroke-dasharray="1" stroke-width="1" stroke-opacity="0.15" stroke="#000000"></path></g><g><path d="M179.5,0.5 L179.5,5.5" fill="none" stroke-dasharray="none" stroke-width="1" stroke-opacity="1" stroke="#DADADA" transform="translate(0,347)"></path><path d="M179.5,347.5 L179.5,347.5 L179.5,0.5" fill="none" stroke-dasharray="1" stroke-width="1" stroke-opacity="0.15" stroke="#000000"></path></g><g><path d="M358.5,0.5 L358.5,5.5" fill="none" stroke-dasharray="none" stroke-width="1" stroke-opacity="1" stroke="#DADADA" transform="translate(0,347)"></path><path d="M358.5,347.5 L358.5,347.5 L358.5,0.5" fill="none" stroke-dasharray="1" stroke-width="1" stroke-opacity="0.15" stroke="#000000"></path></g></g><g transform="translate(73,20)" visibility="visible"><g><path d="M0.5,347.5 L5.5,347.5" fill="none" stroke-dasharray="none" stroke-width="1" stroke-opacity="0.2" stroke="#000000" transform="translate(-6,0)"></path><path d="M0.5,347.5 L0.5,347.5 L486.5,347.5" fill="none" stroke-dasharray="1" stroke-width="1" stroke-opacity="0.15" stroke="#000000"></path></g><g><path d="M0.5,304.5 L5.5,304.5" fill="none" stroke-dasharray="none" stroke-width="1" stroke-opacity="0.2" stroke="#000000" transform="translate(-6,0)"></path><path d="M0.5,304.5 L0.5,304.5 L486.5,304.5" fill="none" stroke-dasharray="1" stroke-width="1" stroke-opacity="0.15" stroke="#000000"></path></g><g><path d="M0.5,260.5 L5.5,260.5" fill="none" stroke-dasharray="none" stroke-width="1" stroke-opacity="0.2" stroke="#000000" transform="translate(-6,0)"></path><path d="M0.5,260.5 L0.5,260.5 L486.5,260.5" fill="none" stroke-dasharray="1" stroke-width="1" stroke-opacity="0.15" stroke="#000000"></path></g><g><path d="M0.5,217.5 L5.5,217.5" fill="none" stroke-dasharray="none" stroke-width="1" stroke-opacity="0.2" stroke="#000000" transform="translate(-6,0)"></path><path d="M0.5,217.5 L0.5,217.5 L486.5,217.5" fill="none" stroke-dasharray="1" stroke-width="1" stroke-opacity="0.15" stroke="#000000"></path></g><g><path d="M0.5,174.5 L5.5,174.5" fill="none" stroke-dasharray="none" stroke-width="1" stroke-opacity="0.2" stroke="#000000" transform="translate(-6,0)"></path><path d="M0.5,174.5 L0.5,174.5 L486.5,174.5" fill="none" stroke-dasharray="1" stroke-width="1" stroke-opacity="0.15" stroke="#000000"></path></g><g><path d="M0.5,130.5 L5.5,130.5" fill="none" stroke-dasharray="none" stroke-width="1" stroke-opacity="0.2" stroke="#000000" transform="translate(-6,0)"></path><path d="M0.5,130.5 L0.5,130.5 L486.5,130.5" fill="none" stroke-dasharray="1" stroke-width="1" stroke-opacity="0.15" stroke="#000000"></path></g><g><path d="M0.5,87.5 L5.5,87.5" fill="none" stroke-dasharray="none" stroke-width="1" stroke-opacity="0.2" stroke="#000000" transform="translate(-6,0)"></path><path d="M0.5,87.5 L0.5,87.5 L486.5,87.5" fill="none" stroke-dasharray="1" stroke-width="1" stroke-opacity="0.15" stroke="#000000"></path></g><g><path d="M0.5,43.5 L5.5,43.5" fill="none" stroke-dasharray="none" stroke-width="1" stroke-opacity="0.2" stroke="#000000" transform="translate(-6,0)"></path><path d="M0.5,43.5 L0.5,43.5 L486.5,43.5" fill="none" stroke-dasharray="1" stroke-width="1" stroke-opacity="0.15" stroke="#000000"></path></g><g><path d="M0.5,0.5 L5.5,0.5" fill="none" stroke-dasharray="none" stroke-width="1" stroke-opacity="0.2" stroke="#000000" transform="translate(-6,0)"></path><path d="M0.5,0.5 L0.5,0.5 L486.5,0.5" fill="none" stroke-dasharray="1" stroke-width="1" stroke-opacity="0.15" stroke="#000000"></path></g></g></g><g></g><g><g transform="translate(73,20)"><g clip-path="url(#AmChartsEl-72)"><path d="M-12.5,333.5 L13.5,331.5 L38.5,328.5 L64.5,324.5 L90.5,320.5 L115.5,315.5 L141.5,309.5 L166.5,303.5 L192.5,295.5 L217.5,285.5 L243.5,274.5 L269.5,261.5 L294.5,246.5 L320.5,227.5 L345.5,206.5 L371.5,181.5 L396.5,151.5 L422.5,115.5 L448.5,74.5 L473.5,24.5" fill="none" stroke-dasharray="1" stroke-width="2" stroke-opacity="1" stroke="#3B5323"></path></g><g clip-path="url(#AmChartsEl-73)"><path d="M-12.5,333.5 L13.5,331.5 L38.5,328.5 L64.5,324.5 L90.5,320.5 L115.5,315.5 L141.5,309.5 L166.5,303.5 L192.5,295.5 L217.5,285.5 L243.5,274.5 L269.5,261.5 L294.5,246.5 L320.5,227.5 L345.5,206.5 L371.5,181.5 L396.5,151.5 L422.5,115.5 L448.5,74.5 L473.5,24.5" fill="none" stroke-dasharray="1" stroke-width="2" stroke-opacity="1" stroke="#3B5323"></path></g><clipPath id="AmChartsEl-72"><rect x="0" y="0" width="486" height="347" rx="0" ry="0" stroke-width="0"></rect></clipPath><clipPath id="AmChartsEl-73"><rect x="0" y="348" width="486" height="1" rx="0" ry="0" stroke-width="0"></rect></clipPath></g><g transform="translate(73,20)"><g clip-path="url(#AmChartsEl-74)"><path d="M-12.5,330.5 L13.5,330.5 L38.5,329.5 L64.5,328.5 L90.5,328.5 L115.5,327.5 L141.5,326.5 L166.5,325.5 L192.5,324.5 L217.5,323.5 L243.5,322.5 L269.5,321.5 L294.5,320.5 L320.5,319.5 L345.5,318.5 L371.5,317.5 L396.5,316.5 L422.5,315.5 L448.5,313.5 L473.5,312.5" fill="none" stroke-dasharray="1" stroke-width="2" stroke-opacity="1" stroke="#b5030d"></path></g><g clip-path="url(#AmChartsEl-75)"><path d="M-12.5,330.5 L13.5,330.5 L38.5,329.5 L64.5,328.5 L90.5,328.5 L115.5,327.5 L141.5,326.5 L166.5,325.5 L192.5,324.5 L217.5,323.5 L243.5,322.5 L269.5,321.5 L294.5,320.5 L320.5,319.5 L345.5,318.5 L371.5,317.5 L396.5,316.5 L422.5,315.5 L448.5,313.5 L473.5,312.5" fill="none" stroke-dasharray="1" stroke-width="2" stroke-opacity="1" stroke="#b5030d"></path></g><clipPath id="AmChartsEl-74"><rect x="0" y="0" width="486" height="347" rx="0" ry="0" stroke-width="0"></rect></clipPath><clipPath id="AmChartsEl-75"><rect x="0" y="348" width="486" height="1" rx="0" ry="0" stroke-width="0"></rect></clipPath></g><g transform="translate(73,20)"><g clip-path="url(#AmChartsEl-76)"><path d="M-12.5,344.5 L13.5,344.5 L38.5,344.5 L64.5,344.5 L90.5,343.5 L115.5,343.5 L141.5,343.5 L166.5,343.5 L192.5,342.5 L217.5,342.5 L243.5,342.5 L269.5,342.5 L294.5,341.5 L320.5,341.5 L345.5,340.5 L371.5,340.5 L396.5,340.5 L422.5,339.5 L448.5,339.5 L473.5,338.5" fill="none" stroke-dasharray="1" stroke-width="2" stroke-opacity="1" stroke="#495E88"></path></g><g clip-path="url(#AmChartsEl-77)"><path d="M-12.5,344.5 L13.5,344.5 L38.5,344.5 L64.5,344.5 L90.5,343.5 L115.5,343.5 L141.5,343.5 L166.5,343.5 L192.5,342.5 L217.5,342.5 L243.5,342.5 L269.5,342.5 L294.5,341.5 L320.5,341.5 L345.5,340.5 L371.5,340.5 L396.5,340.5 L422.5,339.5 L448.5,339.5 L473.5,338.5" fill="none" stroke-dasharray="1" stroke-width="2" stroke-opacity="1" stroke="#495E88"></path></g><clipPath id="AmChartsEl-76"><rect x="0" y="0" width="486" height="347" rx="0" ry="0" stroke-width="0"></rect></clipPath><clipPath id="AmChartsEl-77"><rect x="0" y="348" width="486" height="1" rx="0" ry="0" stroke-width="0"></rect></clipPath></g></g><g clip-path="url(#AmChartsEl-71)"></g><g><g transform="translate(73,20)"><text y="6.5" fill="#000000" font-family="Verdana" font-size="11" text-anchor="start" transform="translate(3,360)">Dec 20</text><text y="6.5" fill="#000000" font-family="Verdana" font-size="11" text-anchor="start" transform="translate(182,360)">Dec 27</text><text y="6.5" fill="#000000" font-family="Verdana" font-size="11" font-weight="bold" text-anchor="start" transform="translate(361,360)">Jan</text></g><g transform="translate(73,20)" visibility="visible"><text y="6.5" fill="#000000" font-family="Verdana" font-size="11" text-anchor="end" transform="translate(-12,345)">0</text><text y="6.5" fill="#000000" font-family="Verdana" font-size="11" text-anchor="end" transform="translate(-12,302)">50,000</text><text y="6.5" fill="#000000" font-family="Verdana" font-size="11" text-anchor="end" transform="translate(-12,258)">100,000</text><text y="6.5" fill="#000000" font-family="Verdana" font-size="11" text-anchor="end" transform="translate(-12,215)">150,000</text><text y="6.5" fill="#000000" font-family="Verdana" font-size="11" text-anchor="end" transform="translate(-12,172)">200,000</text><text y="6.5" fill="#000000" font-family="Verdana" font-size="11" text-anchor="end" transform="translate(-12,128)">250,000</text><text y="6.5" fill="#000000" font-family="Verdana" font-size="11" text-anchor="end" transform="translate(-12,85)">300,000</text><text y="6.5" fill="#000000" font-family="Verdana" font-size="11" text-anchor="end" transform="translate(-12,41)">350,000</text><text y="6.5" fill="#000000" font-family="Verdana" font-size="11" text-anchor="end" transform="translate(-12,-2)">400,000</text></g></g><g><path d="M0.5,0.5 L486.5,0.5" fill="none" stroke-dasharray="none" stroke-width="1" stroke-opacity="1" stroke="#DADADA" transform="translate(73,367)"></path><path d="M0.5,0.5 L0.5,347.5" fill="none" stroke-dasharray="none" stroke-width="1" stroke-opacity="0.2" stroke="#000000" transform="translate(73,20)" visibility="visible"></path><path d="M0.5,347.5 L486.5,347.5 L486.5,347.5" fill="none" stroke-dasharray="1" stroke-width="1" stroke-opacity="0.3" stroke="#000000" transform="translate(73,20)"></path></g><g><g transform="translate(73,20)" visibility="hidden"><path d="M0.5,0.5 L0.5,0.5 L0.5,346.5" fill="none" stroke-dasharray="none" stroke-width="1" stroke-opacity="1" stroke="#CC0000" visibility="hidden" transform="translate(1,0)"></path></g></g><g></g><g><g transform="translate(73,20)"><circle r="4" cx="0" cy="0" fill="#3B5323" stroke="#FFFFFF" fill-opacity="1" stroke-width="2" stroke-opacity="1" transform="translate(13,331)"></circle><circle r="4" cx="0" cy="0" fill="#3B5323" stroke="#FFFFFF" fill-opacity="1" stroke-width="2" stroke-opacity="1" transform="translate(38,328)"></circle><circle r="4" cx="0" cy="0" fill="#3B5323" stroke="#FFFFFF" fill-opacity="1" stroke-width="2" stroke-opacity="1" transform="translate(64,324)"></circle><circle r="4" cx="0" cy="0" fill="#3B5323" stroke="#FFFFFF" fill-opacity="1" stroke-width="2" stroke-opacity="1" transform="translate(90,320)"></circle><circle r="4" cx="0" cy="0" fill="#3B5323" stroke="#FFFFFF" fill-opacity="1" stroke-width="2" stroke-opacity="1" transform="translate(115,315)"></circle><circle r="4" cx="0" cy="0" fill="#3B5323" stroke="#FFFFFF" fill-opacity="1" stroke-width="2" stroke-opacity="1" transform="translate(141,309)"></circle><circle r="4" cx="0" cy="0" fill="#3B5323" stroke="#FFFFFF" fill-opacity="1" stroke-width="2" stroke-opacity="1" transform="translate(166,303)"></circle><circle r="4" cx="0" cy="0" fill="#3B5323" stroke="#FFFFFF" fill-opacity="1" stroke-width="2" stroke-opacity="1" transform="translate(192,295)"></circle><circle r="4" cx="0" cy="0" fill="#3B5323" stroke="#FFFFFF" fill-opacity="1" stroke-width="2" stroke-opacity="1" transform="translate(217,285)"></circle><circle r="4" cx="0" cy="0" fill="#3B5323" stroke="#FFFFFF" fill-opacity="1" stroke-width="2" stroke-opacity="1" transform="translate(243,274)"></circle><circle r="4" cx="0" cy="0" fill="#3B5323" stroke="#FFFFFF" fill-opacity="1" stroke-width="2" stroke-opacity="1" transform="translate(269,261)"></circle><circle r="4" cx="0" cy="0" fill="#3B5323" stroke="#FFFFFF" fill-opacity="1" stroke-width="2" stroke-opacity="1" transform="translate(294,246)"></circle><circle r="4" cx="0" cy="0" fill="#3B5323" stroke="#FFFFFF" fill-opacity="1" stroke-width="2" stroke-opacity="1" transform="translate(320,227)"></circle><circle r="4" cx="0" cy="0" fill="#3B5323" stroke="#FFFFFF" fill-opacity="1" stroke-width="2" stroke-opacity="1" transform="translate(345,206)"></circle><circle r="4" cx="0" cy="0" fill="#3B5323" stroke="#FFFFFF" fill-opacity="1" stroke-width="2" stroke-opacity="1" transform="translate(371,181)"></circle><circle r="4" cx="0" cy="0" fill="#3B5323" stroke="#FFFFFF" fill-opacity="1" stroke-width="2" stroke-opacity="1" transform="translate(396,151)"></circle><circle r="4" cx="0" cy="0" fill="#3B5323" stroke="#FFFFFF" fill-opacity="1" stroke-width="2" stroke-opacity="1" transform="translate(422,115)"></circle><circle r="4" cx="0" cy="0" fill="#3B5323" stroke="#FFFFFF" fill-opacity="1" stroke-width="2" stroke-opacity="1" transform="translate(448,74)"></circle><circle r="4" cx="0" cy="0" fill="#3B5323" stroke="#FFFFFF" fill-opacity="1" stroke-width="2" stroke-opacity="1" transform="translate(473,24)"></circle></g><g transform="translate(73,20)"><circle r="4" cx="0" cy="0" fill="#b5030d" stroke="#FFFFFF" fill-opacity="1" stroke-width="2" stroke-opacity="1" transform="translate(13,330)"></circle><circle r="4" cx="0" cy="0" fill="#b5030d" stroke="#FFFFFF" fill-opacity="1" stroke-width="2" stroke-opacity="1" transform="translate(38,329)"></circle><circle r="4" cx="0" cy="0" fill="#b5030d" stroke="#FFFFFF" fill-opacity="1" stroke-width="2" stroke-opacity="1" transform="translate(64,328)"></circle><circle r="4" cx="0" cy="0" fill="#b5030d" stroke="#FFFFFF" fill-opacity="1" stroke-width="2" stroke-opacity="1" transform="translate(90,328)"></circle><circle r="4" cx="0" cy="0" fill="#b5030d" stroke="#FFFFFF" fill-opacity="1" stroke-width="2" stroke-opacity="1" transform="translate(115,327)"></circle><circle r="4" cx="0" cy="0" fill="#b5030d" stroke="#FFFFFF" fill-opacity="1" stroke-width="2" stroke-opacity="1" transform="translate(141,326)"></circle><circle r="4" cx="0" cy="0" fill="#b5030d" stroke="#FFFFFF" fill-opacity="1" stroke-width="2" stroke-opacity="1" transform="translate(166,325)"></circle><circle r="4" cx="0" cy="0" fill="#b5030d" stroke="#FFFFFF" fill-opacity="1" stroke-width="2" stroke-opacity="1" transform="translate(192,324)"></circle><circle r="4" cx="0" cy="0" fill="#b5030d" stroke="#FFFFFF" fill-opacity="1" stroke-width="2" stroke-opacity="1" transform="translate(217,323)"></circle><circle r="4" cx="0" cy="0" fill="#b5030d" stroke="#FFFFFF" fill-opacity="1" stroke-width="2" stroke-opacity="1" transform="translate(243,322)"></circle><circle r="4" cx="0" cy="0" fill="#b5030d" stroke="#FFFFFF" fill-opacity="1" stroke-width="2" stroke-opacity="1" transform="translate(269,321)"></circle><circle r="4" cx="0" cy="0" fill="#b5030d" stroke="#FFFFFF" fill-opacity="1" stroke-width="2" stroke-opacity="1" transform="translate(294,320)"></circle><circle r="4" cx="0" cy="0" fill="#b5030d" stroke="#FFFFFF" fill-opacity="1" stroke-width="2" stroke-opacity="1" transform="translate(320,319)"></circle><circle r="4" cx="0" cy="0" fill="#b5030d" stroke="#FFFFFF" fill-opacity="1" stroke-width="2" stroke-opacity="1" transform="translate(345,318)"></circle><circle r="4" cx="0" cy="0" fill="#b5030d" stroke="#FFFFFF" fill-opacity="1" stroke-width="2" stroke-opacity="1" transform="translate(371,317)"></circle><circle r="4" cx="0" cy="0" fill="#b5030d" stroke="#FFFFFF" fill-opacity="1" stroke-width="2" stroke-opacity="1" transform="translate(396,316)"></circle><circle r="4" cx="0" cy="0" fill="#b5030d" stroke="#FFFFFF" fill-opacity="1" stroke-width="2" stroke-opacity="1" transform="translate(422,315)"></circle><circle r="4" cx="0" cy="0" fill="#b5030d" stroke="#FFFFFF" fill-opacity="1" stroke-width="2" stroke-opacity="1" transform="translate(448,313)"></circle><circle r="4" cx="0" cy="0" fill="#b5030d" stroke="#FFFFFF" fill-opacity="1" stroke-width="2" stroke-opacity="1" transform="translate(473,312)"></circle></g><g transform="translate(73,20)"><circle r="4" cx="0" cy="0" fill="#495E88" stroke="#FFFFFF" fill-opacity="1" stroke-width="2" stroke-opacity="1" transform="translate(13,344)"></circle><circle r="4" cx="0" cy="0" fill="#495E88" stroke="#FFFFFF" fill-opacity="1" stroke-width="2" stroke-opacity="1" transform="translate(38,344)"></circle><circle r="4" cx="0" cy="0" fill="#495E88" stroke="#FFFFFF" fill-opacity="1" stroke-width="2" stroke-opacity="1" transform="translate(64,344)"></circle><circle r="4" cx="0" cy="0" fill="#495E88" stroke="#FFFFFF" fill-opacity="1" stroke-width="2" stroke-opacity="1" transform="translate(90,343)"></circle><circle r="4" cx="0" cy="0" fill="#495E88" stroke="#FFFFFF" fill-opacity="1" stroke-width="2" stroke-opacity="1" transform="translate(115,343)"></circle><circle r="4" cx="0" cy="0" fill="#495E88" stroke="#FFFFFF" fill-opacity="1" stroke-width="2" stroke-opacity="1" transform="translate(141,343)"></circle><circle r="4" cx="0" cy="0" fill="#495E88" stroke="#FFFFFF" fill-opacity="1" stroke-width="2" stroke-opacity="1" transform="translate(166,343)"></circle><circle r="4" cx="0" cy="0" fill="#495E88" stroke="#FFFFFF" fill-opacity="1" stroke-width="2" stroke-opacity="1" transform="translate(192,342)"></circle><circle r="4" cx="0" cy="0" fill="#495E88" stroke="#FFFFFF" fill-opacity="1" stroke-width="2" stroke-opacity="1" transform="translate(217,342)"></circle><circle r="4" cx="0" cy="0" fill="#495E88" stroke="#FFFFFF" fill-opacity="1" stroke-width="2" stroke-opacity="1" transform="translate(243,342)"></circle><circle r="4" cx="0" cy="0" fill="#495E88" stroke="#FFFFFF" fill-opacity="1" stroke-width="2" stroke-opacity="1" transform="translate(269,342)"></circle><circle r="4" cx="0" cy="0" fill="#495E88" stroke="#FFFFFF" fill-opacity="1" stroke-width="2" stroke-opacity="1" transform="translate(294,341)"></circle><circle r="4" cx="0" cy="0" fill="#495E88" stroke="#FFFFFF" fill-opacity="1" stroke-width="2" stroke-opacity="1" transform="translate(320,341)"></circle><circle r="4" cx="0" cy="0" fill="#495E88" stroke="#FFFFFF" fill-opacity="1" stroke-width="2" stroke-opacity="1" transform="translate(345,340)"></circle><circle r="4" cx="0" cy="0" fill="#495E88" stroke="#FFFFFF" fill-opacity="1" stroke-width="2" stroke-opacity="1" transform="translate(371,340)"></circle><circle r="4" cx="0" cy="0" fill="#495E88" stroke="#FFFFFF" fill-opacity="1" stroke-width="2" stroke-opacity="1" transform="translate(396,340)"></circle><circle r="4" cx="0" cy="0" fill="#495E88" stroke="#FFFFFF" fill-opacity="1" stroke-width="2" stroke-opacity="1" transform="translate(422,339)"></circle><circle r="4" cx="0" cy="0" fill="#495E88" stroke="#FFFFFF" fill-opacity="1" stroke-width="2" stroke-opacity="1" transform="translate(448,339)"></circle><circle r="4" cx="0" cy="0" fill="#495E88" stroke="#FFFFFF" fill-opacity="1" stroke-width="2" stroke-opacity="1" transform="translate(473,338)"></circle></g></g><g><g></g></g><g></g><g></g><g><g><rect x="0.5" y="0.5" width="145" height="20" rx="0" ry="0" stroke-width="0" fill="#FFFFFF" stroke="#FFFFFF" fill-opacity="1" stroke-opacity="1"></rect><text y="6.5" fill="#000000" font-family="Verdana" font-size="11" text-anchor="start" transform="translate(5,8)">chart by amcharts.com</text></g></g><clipPath id="AmChartsEl-71"><rect x="73" y="20" width="486" height="347" rx="0" ry="0" stroke-width="0"></rect></clipPath></svg>