<svg  style="left: 0px; top: -0.78px; width: 579px; height: 399px; position: absolute;" xmlns="http://www.w3.org/2000/svg" version="1.1"><g /><g><g transform="translate(170 20)"><g><path fill="none" stroke="#dadada" stroke-dasharray="none" stroke-opacity="1" stroke-width="1" transform="translate(0 348)" d="M 20.5 0.5 L 20.5 5.5" /><path fill="none" stroke="#000000" stroke-dasharray="1" stroke-opacity="0.15" stroke-width="1" d="M 20.5 348.5 L 20.5 348.5 L 20.5 0.5" /></g><g><path fill="none" stroke="#dadada" stroke-dasharray="none" stroke-opacity="1" stroke-width="1" transform="translate(0 348)" d="M 164.5 0.5 L 164.5 5.5" /><path fill="none" stroke="#000000" stroke-dasharray="1" stroke-opacity="0.15" stroke-width="1" d="M 164.5 348.5 L 164.5 348.5 L 164.5 0.5" /></g><g><path fill="none" stroke="#dadada" stroke-dasharray="none" stroke-opacity="1" stroke-width="1" transform="translate(0 348)" d="M 307.5 0.5 L 307.5 5.5" /><path fill="none" stroke="#000000" stroke-dasharray="1" stroke-opacity="0.15" stroke-width="1" d="M 307.5 348.5 L 307.5 348.5 L 307.5 0.5" /></g></g><g visibility="visible" transform="translate(170 20)"><g><path fill="none" stroke="#000000" stroke-dasharray="none" stroke-opacity="0.2" stroke-width="1" transform="translate(-6)" d="M 0.5 348.5 L 5.5 348.5" /><path fill="none" stroke="#000000" stroke-dasharray="1" stroke-opacity="0.15" stroke-width="1" d="M 0.5 348.5 L 0.5 348.5 L 389.5 348.5" /></g><g><path fill="none" stroke="#000000" stroke-dasharray="none" stroke-opacity="0.2" stroke-width="1" transform="translate(-6)" d="M 0.5 305.5 L 5.5 305.5" /><path fill="none" stroke="#000000" stroke-dasharray="1" stroke-opacity="0.15" stroke-width="1" d="M 0.5 305.5 L 0.5 305.5 L 389.5 305.5" /></g><g><path fill="none" stroke="#000000" stroke-dasharray="none" stroke-opacity="0.2" stroke-width="1" transform="translate(-6)" d="M 0.5 261.5 L 5.5 261.5" /><path fill="none" stroke="#000000" stroke-dasharray="1" stroke-opacity="0.15" stroke-width="1" d="M 0.5 261.5 L 0.5 261.5 L 389.5 261.5" /></g><g><path fill="none" stroke="#000000" stroke-dasharray="none" stroke-opacity="0.2" stroke-width="1" transform="translate(-6)" d="M 0.5 217.5 L 5.5 217.5" /><path fill="none" stroke="#000000" stroke-dasharray="1" stroke-opacity="0.15" stroke-width="1" d="M 0.5 217.5 L 0.5 217.5 L 389.5 217.5" /></g><g><path fill="none" stroke="#000000" stroke-dasharray="none" stroke-opacity="0.2" stroke-width="1" transform="translate(-6)" d="M 0.5 174.5 L 5.5 174.5" /><path fill="none" stroke="#000000" stroke-dasharray="1" stroke-opacity="0.15" stroke-width="1" d="M 0.5 174.5 L 0.5 174.5 L 389.5 174.5" /></g><g><path fill="none" stroke="#000000" stroke-dasharray="none" stroke-opacity="0.2" stroke-width="1" transform="translate(-6)" d="M 0.5 131.5 L 5.5 131.5" /><path fill="none" stroke="#000000" stroke-dasharray="1" stroke-opacity="0.15" stroke-width="1" d="M 0.5 131.5 L 0.5 131.5 L 389.5 131.5" /></g><g><path fill="none" stroke="#000000" stroke-dasharray="none" stroke-opacity="0.2" stroke-width="1" transform="translate(-6)" d="M 0.5 87.5 L 5.5 87.5" /><path fill="none" stroke="#000000" stroke-dasharray="1" stroke-opacity="0.15" stroke-width="1" d="M 0.5 87.5 L 0.5 87.5 L 389.5 87.5" /></g><g><path fill="none" stroke="#000000" stroke-dasharray="none" stroke-opacity="0.2" stroke-width="1" transform="translate(-6)" d="M 0.5 44.5 L 5.5 44.5" /><path fill="none" stroke="#000000" stroke-dasharray="1" stroke-opacity="0.15" stroke-width="1" d="M 0.5 44.5 L 0.5 44.5 L 389.5 44.5" /></g><g><path fill="none" stroke="#000000" stroke-dasharray="none" stroke-opacity="0.2" stroke-width="1" transform="translate(-6)" d="M 0.5 0.5 L 5.5 0.5" /><path fill="none" stroke="#000000" stroke-dasharray="1" stroke-opacity="0.15" stroke-width="1" d="M 0.5 0.5 L 0.5 0.5 L 389.5 0.5" /></g></g></g><g /><g><g transform="translate(170 20)"><g clip-path="url(&quot;#AmChartsEl-139&quot;)"><path fill="none" stroke="#3b5323" stroke-dasharray="1" stroke-opacity="1" stroke-width="2" d="M -9.5 348.5 L 10.5 348.5 L 31.5 348.5 L 51.5 348.5 L 72.5 348.5 L 92.5 348.5 L 113.5 348.5 L 133.5 348.5 L 154.5 348.5 L 174.5 348.5 L 195.5 348.5 L 215.5 348.5 L 235.5 348.5 L 256.5 348.5 L 276.5 348.5 L 297.5 348.5 L 317.5 348.5 L 338.5 348.5 L 358.5 348.5 L 379.5 348.5" /></g><g clip-path="url(&quot;#AmChartsEl-140&quot;)"><path fill="none" stroke="#3b5323" stroke-dasharray="1" stroke-opacity="1" stroke-width="2" d="M -9.5 348.5 L 10.5 348.5 L 31.5 348.5 L 51.5 348.5 L 72.5 348.5 L 92.5 348.5 L 113.5 348.5 L 133.5 348.5 L 154.5 348.5 L 174.5 348.5 L 195.5 348.5 L 215.5 348.5 L 235.5 348.5 L 256.5 348.5 L 276.5 348.5 L 297.5 348.5 L 317.5 348.5 L 338.5 348.5 L 358.5 348.5 L 379.5 348.5" /></g><clipPath id="AmChartsEl-139"><rect stroke-width="0" x="0" y="0" width="389" height="348" rx="0" ry="0" /></clipPath><clipPath id="AmChartsEl-140"><rect stroke-width="0" x="0" y="349" width="389" height="1" rx="0" ry="0" /></clipPath></g><g transform="translate(170 20)"><g clip-path="url(&quot;#AmChartsEl-141&quot;)"><path fill="none" stroke="#b5030d" stroke-dasharray="1" stroke-opacity="1" stroke-width="2" d="M -9.5 348.5 L 10.5 348.5 L 31.5 348.5 L 51.5 348.5 L 72.5 348.5 L 92.5 348.5 L 113.5 348.5 L 133.5 348.5 L 154.5 348.5 L 174.5 348.5 L 195.5 348.5 L 215.5 348.5 L 235.5 348.5 L 256.5 348.5 L 276.5 348.5 L 297.5 348.5 L 317.5 348.5 L 338.5 345.5 L 358.5 320.5 L 379.5 37.5" /></g><g clip-path="url(&quot;#AmChartsEl-142&quot;)"><path fill="none" stroke="#b5030d" stroke-dasharray="1" stroke-opacity="1" stroke-width="2" d="M -9.5 348.5 L 10.5 348.5 L 31.5 348.5 L 51.5 348.5 L 72.5 348.5 L 92.5 348.5 L 113.5 348.5 L 133.5 348.5 L 154.5 348.5 L 174.5 348.5 L 195.5 348.5 L 215.5 348.5 L 235.5 348.5 L 256.5 348.5 L 276.5 348.5 L 297.5 348.5 L 317.5 348.5 L 338.5 345.5 L 358.5 320.5 L 379.5 37.5" /></g><clipPath id="AmChartsEl-141"><rect stroke-width="0" x="0" y="0" width="389" height="348" rx="0" ry="0" /></clipPath><clipPath id="AmChartsEl-142"><rect stroke-width="0" x="0" y="349" width="389" height="1" rx="0" ry="0" /></clipPath></g><g transform="translate(170 20)"><g clip-path="url(&quot;#AmChartsEl-143&quot;)"><path fill="none" stroke="#495e88" stroke-dasharray="1" stroke-opacity="1" stroke-width="2" d="M -9.5 348.5 L 10.5 348.5 L 31.5 348.5 L 51.5 348.5 L 72.5 348.5 L 92.5 348.5 L 113.5 348.5 L 133.5 348.5 L 154.5 348.5 L 174.5 348.5 L 195.5 348.5 L 215.5 348.5 L 235.5 348.5 L 256.5 348.5 L 276.5 348.5 L 297.5 348.5 L 317.5 348.5 L 338.5 348.5 L 358.5 348.5 L 379.5 348.5" /></g><g clip-path="url(&quot;#AmChartsEl-144&quot;)"><path fill="none" stroke="#495e88" stroke-dasharray="1" stroke-opacity="1" stroke-width="2" d="M -9.5 348.5 L 10.5 348.5 L 31.5 348.5 L 51.5 348.5 L 72.5 348.5 L 92.5 348.5 L 113.5 348.5 L 133.5 348.5 L 154.5 348.5 L 174.5 348.5 L 195.5 348.5 L 215.5 348.5 L 235.5 348.5 L 256.5 348.5 L 276.5 348.5 L 297.5 348.5 L 317.5 348.5 L 338.5 348.5 L 358.5 348.5 L 379.5 348.5" /></g><clipPath id="AmChartsEl-143"><rect stroke-width="0" x="0" y="0" width="389" height="348" rx="0" ry="0" /></clipPath><clipPath id="AmChartsEl-144"><rect stroke-width="0" x="0" y="349" width="389" height="1" rx="0" ry="0" /></clipPath></g></g><g clip-path="url(&quot;#AmChartsEl-138&quot;)" /><g><g transform="translate(170 20)"><text font-family="Verdana" font-size="11" fill="#000000" text-anchor="start" transform="translate(23 361)" y="5.5">Dec 20</text><text font-family="Verdana" font-size="11" fill="#000000" text-anchor="start" transform="translate(167 361)" y="5.5">Dec 27</text><text font-family="Verdana" font-size="11" font-weight="bold" fill="#000000" text-anchor="start" transform="translate(310 361)" y="5.5">Jan</text></g><g visibility="visible" transform="translate(170 20)"><text font-family="Verdana" font-size="11" fill="#000000" text-anchor="end" transform="translate(-12 346)" y="5.5">0</text><text font-family="Verdana" font-size="11" fill="#000000" text-anchor="end" transform="translate(-12 303)" y="5.5">5e22</text><text font-family="Verdana" font-size="11" fill="#000000" text-anchor="end" transform="translate(-12 259)" y="5.5">1e23</text><text font-family="Verdana" font-size="11" fill="#000000" text-anchor="end" transform="translate(-12 215)" y="5.5">1.5e23</text><text font-family="Verdana" font-size="11" fill="#000000" text-anchor="end" transform="translate(-12 172)" y="5.5">2e23</text><text font-family="Verdana" font-size="11" fill="#000000" text-anchor="end" transform="translate(-12 129)" y="5.5">2.4999999999999995e23</text><text font-family="Verdana" font-size="11" fill="#000000" text-anchor="end" transform="translate(-12 85)" y="5.5">3e23</text><text font-family="Verdana" font-size="11" fill="#000000" text-anchor="end" transform="translate(-12 42)" y="5.5">3.4999999999999995e23</text><text font-family="Verdana" font-size="11" fill="#000000" text-anchor="end" transform="translate(-12 -2)" y="5.5">4e23</text></g></g><g><path fill="none" stroke="#dadada" stroke-dasharray="none" stroke-opacity="1" stroke-width="1" transform="translate(170 368)" d="M 0.5 0.5 L 389.5 0.5" /><path visibility="visible" fill="none" stroke="#000000" stroke-dasharray="none" stroke-opacity="0.2" stroke-width="1" transform="translate(170 20)" d="M 0.5 0.5 L 0.5 348.5" /><path fill="none" stroke="#000000" stroke-dasharray="1" stroke-opacity="0.3" stroke-width="1" transform="translate(170 20)" d="M 0.5 348.5 L 389.5 348.5 L 389.5 348.5" /></g><g><g visibility="hidden" transform="translate(170 20)"><path visibility="hidden" fill="none" stroke="#cc0000" stroke-dasharray="none" stroke-opacity="1" stroke-width="1" d="M 0.5 0.5 L 0.5 0.5 L 0.5 347.5" /></g></g><g /><g><g transform="translate(170 20)"><circle fill="#3b5323" fill-opacity="1" stroke="#ffffff" stroke-opacity="1" stroke-width="2" transform="translate(10 348)" cx="0" cy="0" r="4" /><circle fill="#3b5323" fill-opacity="1" stroke="#ffffff" stroke-opacity="1" stroke-width="2" transform="translate(31 348)" cx="0" cy="0" r="4" /><circle fill="#3b5323" fill-opacity="1" stroke="#ffffff" stroke-opacity="1" stroke-width="2" transform="translate(51 348)" cx="0" cy="0" r="4" /><circle fill="#3b5323" fill-opacity="1" stroke="#ffffff" stroke-opacity="1" stroke-width="2" transform="translate(72 348)" cx="0" cy="0" r="4" /><circle fill="#3b5323" fill-opacity="1" stroke="#ffffff" stroke-opacity="1" stroke-width="2" transform="translate(92 348)" cx="0" cy="0" r="4" /><circle fill="#3b5323" fill-opacity="1" stroke="#ffffff" stroke-opacity="1" stroke-width="2" transform="translate(113 348)" cx="0" cy="0" r="4" /><circle fill="#3b5323" fill-opacity="1" stroke="#ffffff" stroke-opacity="1" stroke-width="2" transform="translate(133 348)" cx="0" cy="0" r="4" /><circle fill="#3b5323" fill-opacity="1" stroke="#ffffff" stroke-opacity="1" stroke-width="2" transform="translate(154 348)" cx="0" cy="0" r="4" /><circle fill="#3b5323" fill-opacity="1" stroke="#ffffff" stroke-opacity="1" stroke-width="2" transform="translate(174 348)" cx="0" cy="0" r="4" /><circle fill="#3b5323" fill-opacity="1" stroke="#ffffff" stroke-opacity="1" stroke-width="2" transform="translate(195 348)" cx="0" cy="0" r="4" /><circle fill="#3b5323" fill-opacity="1" stroke="#ffffff" stroke-opacity="1" stroke-width="2" transform="translate(215 348)" cx="0" cy="0" r="4" /><circle fill="#3b5323" fill-opacity="1" stroke="#ffffff" stroke-opacity="1" stroke-width="2" transform="translate(235 348)" cx="0" cy="0" r="4" /><circle fill="#3b5323" fill-opacity="1" stroke="#ffffff" stroke-opacity="1" stroke-width="2" transform="translate(256 348)" cx="0" cy="0" r="4" /><circle fill="#3b5323" fill-opacity="1" stroke="#ffffff" stroke-opacity="1" stroke-width="2" transform="translate(276 348)" cx="0" cy="0" r="4" /><circle fill="#3b5323" fill-opacity="1" stroke="#ffffff" stroke-opacity="1" stroke-width="2" transform="translate(297 348)" cx="0" cy="0" r="4" /><circle fill="#3b5323" fill-opacity="1" stroke="#ffffff" stroke-opacity="1" stroke-width="2" transform="translate(317 348)" cx="0" cy="0" r="4" /><circle fill="#3b5323" fill-opacity="1" stroke="#ffffff" stroke-opacity="1" stroke-width="2" transform="translate(338 348)" cx="0" cy="0" r="4" /><circle fill="#3b5323" fill-opacity="1" stroke="#ffffff" stroke-opacity="1" stroke-width="2" transform="translate(358 348)" cx="0" cy="0" r="4" /><circle fill="#3b5323" fill-opacity="1" stroke="#ffffff" stroke-opacity="1" stroke-width="2" transform="translate(379 348)" cx="0" cy="0" r="4" /></g><g transform="translate(170 20)"><circle fill="#b5030d" fill-opacity="1" stroke="#ffffff" stroke-opacity="1" stroke-width="2" transform="translate(10 348)" cx="0" cy="0" r="4" /><circle fill="#b5030d" fill-opacity="1" stroke="#ffffff" stroke-opacity="1" stroke-width="2" transform="translate(31 348)" cx="0" cy="0" r="4" /><circle fill="#b5030d" fill-opacity="1" stroke="#ffffff" stroke-opacity="1" stroke-width="2" transform="translate(51 348)" cx="0" cy="0" r="4" /><circle fill="#b5030d" fill-opacity="1" stroke="#ffffff" stroke-opacity="1" stroke-width="2" transform="translate(72 348)" cx="0" cy="0" r="4" /><circle fill="#b5030d" fill-opacity="1" stroke="#ffffff" stroke-opacity="1" stroke-width="2" transform="translate(92 348)" cx="0" cy="0" r="4" /><circle fill="#b5030d" fill-opacity="1" stroke="#ffffff" stroke-opacity="1" stroke-width="2" transform="translate(113 348)" cx="0" cy="0" r="4" /><circle fill="#b5030d" fill-opacity="1" stroke="#ffffff" stroke-opacity="1" stroke-width="2" transform="translate(133 348)" cx="0" cy="0" r="4" /><circle fill="#b5030d" fill-opacity="1" stroke="#ffffff" stroke-opacity="1" stroke-width="2" transform="translate(154 348)" cx="0" cy="0" r="4" /><circle fill="#b5030d" fill-opacity="1" stroke="#ffffff" stroke-opacity="1" stroke-width="2" transform="translate(174 348)" cx="0" cy="0" r="4" /><circle fill="#b5030d" fill-opacity="1" stroke="#ffffff" stroke-opacity="1" stroke-width="2" transform="translate(195 348)" cx="0" cy="0" r="4" /><circle fill="#b5030d" fill-opacity="1" stroke="#ffffff" stroke-opacity="1" stroke-width="2" transform="translate(215 348)" cx="0" cy="0" r="4" /><circle fill="#b5030d" fill-opacity="1" stroke="#ffffff" stroke-opacity="1" stroke-width="2" transform="translate(235 348)" cx="0" cy="0" r="4" /><circle fill="#b5030d" fill-opacity="1" stroke="#ffffff" stroke-opacity="1" stroke-width="2" transform="translate(256 348)" cx="0" cy="0" r="4" /><circle fill="#b5030d" fill-opacity="1" stroke="#ffffff" stroke-opacity="1" stroke-width="2" transform="translate(276 348)" cx="0" cy="0" r="4" /><circle fill="#b5030d" fill-opacity="1" stroke="#ffffff" stroke-opacity="1" stroke-width="2" transform="translate(297 348)" cx="0" cy="0" r="4" /><circle fill="#b5030d" fill-opacity="1" stroke="#ffffff" stroke-opacity="1" stroke-width="2" transform="translate(317 348)" cx="0" cy="0" r="4" /><circle fill="#b5030d" fill-opacity="1" stroke="#ffffff" stroke-opacity="1" stroke-width="2" transform="translate(338 345)" cx="0" cy="0" r="4" /><circle fill="#b5030d" fill-opacity="1" stroke="#ffffff" stroke-opacity="1" stroke-width="2" transform="translate(358 320)" cx="0" cy="0" r="4" /><circle fill="#b5030d" fill-opacity="1" stroke="#ffffff" stroke-opacity="1" stroke-width="2" transform="translate(379 37)" cx="0" cy="0" r="4" /></g><g transform="translate(170 20)"><circle fill="#495e88" fill-opacity="1" stroke="#ffffff" stroke-opacity="1" stroke-width="2" transform="translate(10 348)" cx="0" cy="0" r="4" /><circle fill="#495e88" fill-opacity="1" stroke="#ffffff" stroke-opacity="1" stroke-width="2" transform="translate(31 348)" cx="0" cy="0" r="4" /><circle fill="#495e88" fill-opacity="1" stroke="#ffffff" stroke-opacity="1" stroke-width="2" transform="translate(51 348)" cx="0" cy="0" r="4" /><circle fill="#495e88" fill-opacity="1" stroke="#ffffff" stroke-opacity="1" stroke-width="2" transform="translate(72 348)" cx="0" cy="0" r="4" /><circle fill="#495e88" fill-opacity="1" stroke="#ffffff" stroke-opacity="1" stroke-width="2" transform="translate(92 348)" cx="0" cy="0" r="4" /><circle fill="#495e88" fill-opacity="1" stroke="#ffffff" stroke-opacity="1" stroke-width="2" transform="translate(113 348)" cx="0" cy="0" r="4" /><circle fill="#495e88" fill-opacity="1" stroke="#ffffff" stroke-opacity="1" stroke-width="2" transform="translate(133 348)" cx="0" cy="0" r="4" /><circle fill="#495e88" fill-opacity="1" stroke="#ffffff" stroke-opacity="1" stroke-width="2" transform="translate(154 348)" cx="0" cy="0" r="4" /><circle fill="#495e88" fill-opacity="1" stroke="#ffffff" stroke-opacity="1" stroke-width="2" transform="translate(174 348)" cx="0" cy="0" r="4" /><circle fill="#495e88" fill-opacity="1" stroke="#ffffff" stroke-opacity="1" stroke-width="2" transform="translate(195 348)" cx="0" cy="0" r="4" /><circle fill="#495e88" fill-opacity="1" stroke="#ffffff" stroke-opacity="1" stroke-width="2" transform="translate(215 348)" cx="0" cy="0" r="4" /><circle fill="#495e88" fill-opacity="1" stroke="#ffffff" stroke-opacity="1" stroke-width="2" transform="translate(235 348)" cx="0" cy="0" r="4" /><circle fill="#495e88" fill-opacity="1" stroke="#ffffff" stroke-opacity="1" stroke-width="2" transform="translate(256 348)" cx="0" cy="0" r="4" /><circle fill="#495e88" fill-opacity="1" stroke="#ffffff" stroke-opacity="1" stroke-width="2" transform="translate(276 348)" cx="0" cy="0" r="4" /><circle fill="#495e88" fill-opacity="1" stroke="#ffffff" stroke-opacity="1" stroke-width="2" transform="translate(297 348)" cx="0" cy="0" r="4" /><circle fill="#495e88" fill-opacity="1" stroke="#ffffff" stroke-opacity="1" stroke-width="2" transform="translate(317 348)" cx="0" cy="0" r="4" /><circle fill="#495e88" fill-opacity="1" stroke="#ffffff" stroke-opacity="1" stroke-width="2" transform="translate(338 348)" cx="0" cy="0" r="4" /><circle fill="#495e88" fill-opacity="1" stroke="#ffffff" stroke-opacity="1" stroke-width="2" transform="translate(358 348)" cx="0" cy="0" r="4" /><circle fill="#495e88" fill-opacity="1" stroke="#ffffff" stroke-opacity="1" stroke-width="2" transform="translate(379 348)" cx="0" cy="0" r="4" /></g></g><g><g /></g><g /><g /><g><g><rect fill="#ffffff" fill-opacity="1" stroke="#ffffff" stroke-opacity="1" stroke-width="0" x="0.5" y="0.5" width="145" height="20" rx="0" ry="0" /><text font-family="Verdana" font-size="11" fill="#000000" text-anchor="start" transform="translate(5 8)" y="5.5">chart by amcharts.com</text></g></g><clipPath id="AmChartsEl-138"><rect stroke-width="0" x="170" y="20" width="389" height="348" rx="0" ry="0" /></clipPath></svg>