<svg style="position: absolute; width: 579px; height: 399px; left: 0px; top: 0px; " version="1.1" xmlns="http://www.w3.org/2000/svg"><g></g><g><g transform="translate(71,20)"><g><path d="M103.5,0.5 L103.5,5.5" fill="none" stroke-dasharray="none" stroke-width="1" stroke-opacity="1" stroke="#DADADA" transform="translate(0,347)"></path><path d="M103.5,347.5 L103.5,347.5 L103.5,0.5" fill="none" stroke-dasharray="1" stroke-width="1" stroke-opacity="0.15" stroke="#000000"></path></g><g><path d="M283.5,0.5 L283.5,5.5" fill="none" stroke-dasharray="none" stroke-width="1" stroke-opacity="1" stroke="#DADADA" transform="translate(0,347)"></path><path d="M283.5,347.5 L283.5,347.5 L283.5,0.5" fill="none" stroke-dasharray="1" stroke-width="1" stroke-opacity="0.15" stroke="#000000"></path></g><g><path d="M462.5,0.5 L462.5,5.5" fill="none" stroke-dasharray="none" stroke-width="1" stroke-opacity="1" stroke="#DADADA" transform="translate(0,347)"></path><path d="M462.5,347.5 L462.5,347.5 L462.5,0.5" fill="none" stroke-dasharray="1" stroke-width="1" stroke-opacity="0.15" stroke="#000000"></path></g></g><g transform="translate(71,20)" visibility="visible"><g><path d="M0.5,347.5 L5.5,347.5" fill="none" stroke-dasharray="none" stroke-width="1" stroke-opacity="0.2" stroke="#000000" transform="translate(-6,0)"></path><path d="M0.5,347.5 L0.5,347.5 L488.5,347.5" fill="none" stroke-dasharray="1" stroke-width="1" stroke-opacity="0.15" stroke="#000000"></path></g><g><path d="M0.5,289.5 L5.5,289.5" fill="none" stroke-dasharray="none" stroke-width="1" stroke-opacity="0.2" stroke="#000000" transform="translate(-6,0)"></path><path d="M0.5,289.5 L0.5,289.5 L488.5,289.5" fill="none" stroke-dasharray="1" stroke-width="1" stroke-opacity="0.15" stroke="#000000"></path></g><g><path d="M0.5,231.5 L5.5,231.5" fill="none" stroke-dasharray="none" stroke-width="1" stroke-opacity="0.2" stroke="#000000" transform="translate(-6,0)"></path><path d="M0.5,231.5 L0.5,231.5 L488.5,231.5" fill="none" stroke-dasharray="1" stroke-width="1" stroke-opacity="0.15" stroke="#000000"></path></g><g><path d="M0.5,174.5 L5.5,174.5" fill="none" stroke-dasharray="none" stroke-width="1" stroke-opacity="0.2" stroke="#000000" transform="translate(-6,0)"></path><path d="M0.5,174.5 L0.5,174.5 L488.5,174.5" fill="none" stroke-dasharray="1" stroke-width="1" stroke-opacity="0.15" stroke="#000000"></path></g><g><path d="M0.5,116.5 L5.5,116.5" fill="none" stroke-dasharray="none" stroke-width="1" stroke-opacity="0.2" stroke="#000000" transform="translate(-6,0)"></path><path d="M0.5,116.5 L0.5,116.5 L488.5,116.5" fill="none" stroke-dasharray="1" stroke-width="1" stroke-opacity="0.15" stroke="#000000"></path></g><g><path d="M0.5,58.5 L5.5,58.5" fill="none" stroke-dasharray="none" stroke-width="1" stroke-opacity="0.2" stroke="#000000" transform="translate(-6,0)"></path><path d="M0.5,58.5 L0.5,58.5 L488.5,58.5" fill="none" stroke-dasharray="1" stroke-width="1" stroke-opacity="0.15" stroke="#000000"></path></g><g><path d="M0.5,0.5 L5.5,0.5" fill="none" stroke-dasharray="none" stroke-width="1" stroke-opacity="0.2" stroke="#000000" transform="translate(-6,0)"></path><path d="M0.5,0.5 L0.5,0.5 L488.5,0.5" fill="none" stroke-dasharray="1" stroke-width="1" stroke-opacity="0.15" stroke="#000000"></path></g></g></g><g></g><g><g transform="translate(71,20)"><g clip-path="url(#AmChartsEl-58)"><path d="M-12.5,289.5 L13.5,286.5 L39.5,284.5 L64.5,281.5 L90.5,278.5 L116.5,276.5 L141.5,274.5 L167.5,272.5 L193.5,270.5 L218.5,268.5 L244.5,266.5 L270.5,264.5 L295.5,263.5 L321.5,261.5 L347.5,260.5 L372.5,258.5 L398.5,257.5 L424.5,256.5 L449.5,254.5 L475.5,253.5" fill="none" stroke-dasharray="1" stroke-width="2" stroke-opacity="1" stroke="#3B5323"></path></g><g clip-path="url(#AmChartsEl-59)"><path d="M-12.5,289.5 L13.5,286.5 L39.5,284.5 L64.5,281.5 L90.5,278.5 L116.5,276.5 L141.5,274.5 L167.5,272.5 L193.5,270.5 L218.5,268.5 L244.5,266.5 L270.5,264.5 L295.5,263.5 L321.5,261.5 L347.5,260.5 L372.5,258.5 L398.5,257.5 L424.5,256.5 L449.5,254.5 L475.5,253.5" fill="none" stroke-dasharray="1" stroke-width="2" stroke-opacity="1" stroke="#3B5323"></path></g><clipPath id="AmChartsEl-58"><rect x="0" y="0" width="488" height="231" rx="0" ry="0" stroke-width="0"></rect></clipPath><clipPath id="AmChartsEl-59"><rect x="0" y="232" width="488" height="116" rx="0" ry="0" stroke-width="0"></rect></clipPath></g><g transform="translate(71,20)"><g clip-path="url(#AmChartsEl-60)"><path d="M-12.5,202.5 L13.5,200.5 L39.5,197.5 L64.5,194.5 L90.5,191.5 L116.5,187.5 L141.5,183.5 L167.5,178.5 L193.5,174.5 L218.5,169.5 L244.5,163.5 L270.5,157.5 L295.5,150.5 L321.5,143.5 L347.5,135.5 L372.5,126.5 L398.5,117.5 L424.5,106.5 L449.5,95.5 L475.5,83.5" fill="none" stroke-dasharray="1" stroke-width="2" stroke-opacity="1" stroke="#b5030d"></path></g><g clip-path="url(#AmChartsEl-61)"><path d="M-12.5,202.5 L13.5,200.5 L39.5,197.5 L64.5,194.5 L90.5,191.5 L116.5,187.5 L141.5,183.5 L167.5,178.5 L193.5,174.5 L218.5,169.5 L244.5,163.5 L270.5,157.5 L295.5,150.5 L321.5,143.5 L347.5,135.5 L372.5,126.5 L398.5,117.5 L424.5,106.5 L449.5,95.5 L475.5,83.5" fill="none" stroke-dasharray="1" stroke-width="2" stroke-opacity="1" stroke="#b5030d"></path></g><clipPath id="AmChartsEl-60"><rect x="0" y="0" width="488" height="231" rx="0" ry="0" stroke-width="0"></rect></clipPath><clipPath id="AmChartsEl-61"><rect x="0" y="232" width="488" height="116" rx="0" ry="0" stroke-width="0"></rect></clipPath></g><g transform="translate(71,20)"><g clip-path="url(#AmChartsEl-62)"><path d="M-12.5,158.5 L13.5,153.5 L39.5,148.5 L64.5,144.5 L90.5,138.5 L116.5,133.5 L141.5,127.5 L167.5,120.5 L193.5,114.5 L218.5,107.5 L244.5,99.5 L270.5,91.5 L295.5,83.5 L321.5,74.5 L347.5,65.5 L372.5,55.5 L398.5,44.5 L424.5,33.5 L449.5,21.5 L475.5,8.5" fill="none" stroke-dasharray="1" stroke-width="2" stroke-opacity="1" stroke="#495E88"></path></g><g clip-path="url(#AmChartsEl-63)"><path d="M-12.5,158.5 L13.5,153.5 L39.5,148.5 L64.5,144.5 L90.5,138.5 L116.5,133.5 L141.5,127.5 L167.5,120.5 L193.5,114.5 L218.5,107.5 L244.5,99.5 L270.5,91.5 L295.5,83.5 L321.5,74.5 L347.5,65.5 L372.5,55.5 L398.5,44.5 L424.5,33.5 L449.5,21.5 L475.5,8.5" fill="none" stroke-dasharray="1" stroke-width="2" stroke-opacity="1" stroke="#495E88"></path></g><clipPath id="AmChartsEl-62"><rect x="0" y="0" width="488" height="231" rx="0" ry="0" stroke-width="0"></rect></clipPath><clipPath id="AmChartsEl-63"><rect x="0" y="232" width="488" height="116" rx="0" ry="0" stroke-width="0"></rect></clipPath></g></g><g clip-path="url(#AmChartsEl-57)"></g><g><g transform="translate(71,20)"><text y="6.5" fill="#000000" font-family="Verdana" font-size="11" text-anchor="start" transform="translate(106,360)">Dec 20</text><text y="6.5" fill="#000000" font-family="Verdana" font-size="11" text-anchor="start" transform="translate(286,360)">Dec 27</text><text y="6.5" fill="#000000" font-family="Verdana" font-size="11" font-weight="bold" text-anchor="start" transform="translate(465,360)">Jan</text></g><g transform="translate(71,20)" visibility="visible"><text y="6.5" fill="#000000" font-family="Verdana" font-size="11" text-anchor="end" transform="translate(-12,345)">-20,000</text><text y="6.5" fill="#000000" font-family="Verdana" font-size="11" text-anchor="end" transform="translate(-12,287)">-10,000</text><text y="6.5" fill="#000000" font-family="Verdana" font-size="11" text-anchor="end" transform="translate(-12,229)">0</text><text y="6.5" fill="#000000" font-family="Verdana" font-size="11" text-anchor="end" transform="translate(-12,172)">10,000</text><text y="6.5" fill="#000000" font-family="Verdana" font-size="11" text-anchor="end" transform="translate(-12,114)">20,000</text><text y="6.5" fill="#000000" font-family="Verdana" font-size="11" text-anchor="end" transform="translate(-12,56)">30,000</text><text y="6.5" fill="#000000" font-family="Verdana" font-size="11" text-anchor="end" transform="translate(-12,-2)">40,000</text></g></g><g><path d="M0.5,0.5 L488.5,0.5" fill="none" stroke-dasharray="none" stroke-width="1" stroke-opacity="1" stroke="#DADADA" transform="translate(71,367)"></path><path d="M0.5,0.5 L0.5,347.5" fill="none" stroke-dasharray="none" stroke-width="1" stroke-opacity="0.2" stroke="#000000" transform="translate(71,20)" visibility="visible"></path><path d="M0.5,231.5 L488.5,231.5 L488.5,231.5" fill="none" stroke-dasharray="1" stroke-width="1" stroke-opacity="0.3" stroke="#000000" transform="translate(71,20)"></path></g><g><g transform="translate(71,20)" visibility="hidden"><path d="M0.5,0.5 L0.5,0.5 L0.5,346.5" fill="none" stroke-dasharray="none" stroke-width="1" stroke-opacity="1" stroke="#CC0000" visibility="hidden"></path></g></g><g></g><g><g transform="translate(71,20)"><circle r="4" cx="0" cy="0" fill="#3B5323" stroke="#FFFFFF" fill-opacity="1" stroke-width="2" stroke-opacity="1" transform="translate(13,286)"></circle><circle r="4" cx="0" cy="0" fill="#3B5323" stroke="#FFFFFF" fill-opacity="1" stroke-width="2" stroke-opacity="1" transform="translate(39,284)"></circle><circle r="4" cx="0" cy="0" fill="#3B5323" stroke="#FFFFFF" fill-opacity="1" stroke-width="2" stroke-opacity="1" transform="translate(64,281)"></circle><circle r="4" cx="0" cy="0" fill="#3B5323" stroke="#FFFFFF" fill-opacity="1" stroke-width="2" stroke-opacity="1" transform="translate(90,278)"></circle><circle r="4" cx="0" cy="0" fill="#3B5323" stroke="#FFFFFF" fill-opacity="1" stroke-width="2" stroke-opacity="1" transform="translate(116,276)"></circle><circle r="4" cx="0" cy="0" fill="#3B5323" stroke="#FFFFFF" fill-opacity="1" stroke-width="2" stroke-opacity="1" transform="translate(141,274)"></circle><circle r="4" cx="0" cy="0" fill="#3B5323" stroke="#FFFFFF" fill-opacity="1" stroke-width="2" stroke-opacity="1" transform="translate(167,272)"></circle><circle r="4" cx="0" cy="0" fill="#3B5323" stroke="#FFFFFF" fill-opacity="1" stroke-width="2" stroke-opacity="1" transform="translate(193,270)"></circle><circle r="4" cx="0" cy="0" fill="#3B5323" stroke="#FFFFFF" fill-opacity="1" stroke-width="2" stroke-opacity="1" transform="translate(218,268)"></circle><circle r="4" cx="0" cy="0" fill="#3B5323" stroke="#FFFFFF" fill-opacity="1" stroke-width="2" stroke-opacity="1" transform="translate(244,266)"></circle><circle r="4" cx="0" cy="0" fill="#3B5323" stroke="#FFFFFF" fill-opacity="1" stroke-width="2" stroke-opacity="1" transform="translate(270,264)"></circle><circle r="4" cx="0" cy="0" fill="#3B5323" stroke="#FFFFFF" fill-opacity="1" stroke-width="2" stroke-opacity="1" transform="translate(295,263)"></circle><circle r="4" cx="0" cy="0" fill="#3B5323" stroke="#FFFFFF" fill-opacity="1" stroke-width="2" stroke-opacity="1" transform="translate(321,261)"></circle><circle r="4" cx="0" cy="0" fill="#3B5323" stroke="#FFFFFF" fill-opacity="1" stroke-width="2" stroke-opacity="1" transform="translate(347,260)"></circle><circle r="4" cx="0" cy="0" fill="#3B5323" stroke="#FFFFFF" fill-opacity="1" stroke-width="2" stroke-opacity="1" transform="translate(372,258)"></circle><circle r="4" cx="0" cy="0" fill="#3B5323" stroke="#FFFFFF" fill-opacity="1" stroke-width="2" stroke-opacity="1" transform="translate(398,257)"></circle><circle r="4" cx="0" cy="0" fill="#3B5323" stroke="#FFFFFF" fill-opacity="1" stroke-width="2" stroke-opacity="1" transform="translate(424,256)"></circle><circle r="4" cx="0" cy="0" fill="#3B5323" stroke="#FFFFFF" fill-opacity="1" stroke-width="2" stroke-opacity="1" transform="translate(449,254)"></circle><circle r="4" cx="0" cy="0" fill="#3B5323" stroke="#FFFFFF" fill-opacity="1" stroke-width="2" stroke-opacity="1" transform="translate(475,253)"></circle></g><g transform="translate(71,20)"><circle r="4" cx="0" cy="0" fill="#b5030d" stroke="#FFFFFF" fill-opacity="1" stroke-width="2" stroke-opacity="1" transform="translate(13,200)"></circle><circle r="4" cx="0" cy="0" fill="#b5030d" stroke="#FFFFFF" fill-opacity="1" stroke-width="2" stroke-opacity="1" transform="translate(39,197)"></circle><circle r="4" cx="0" cy="0" fill="#b5030d" stroke="#FFFFFF" fill-opacity="1" stroke-width="2" stroke-opacity="1" transform="translate(64,194)"></circle><circle r="4" cx="0" cy="0" fill="#b5030d" stroke="#FFFFFF" fill-opacity="1" stroke-width="2" stroke-opacity="1" transform="translate(90,191)"></circle><circle r="4" cx="0" cy="0" fill="#b5030d" stroke="#FFFFFF" fill-opacity="1" stroke-width="2" stroke-opacity="1" transform="translate(116,187)"></circle><circle r="4" cx="0" cy="0" fill="#b5030d" stroke="#FFFFFF" fill-opacity="1" stroke-width="2" stroke-opacity="1" transform="translate(141,183)"></circle><circle r="4" cx="0" cy="0" fill="#b5030d" stroke="#FFFFFF" fill-opacity="1" stroke-width="2" stroke-opacity="1" transform="translate(167,178)"></circle><circle r="4" cx="0" cy="0" fill="#b5030d" stroke="#FFFFFF" fill-opacity="1" stroke-width="2" stroke-opacity="1" transform="translate(193,174)"></circle><circle r="4" cx="0" cy="0" fill="#b5030d" stroke="#FFFFFF" fill-opacity="1" stroke-width="2" stroke-opacity="1" transform="translate(218,169)"></circle><circle r="4" cx="0" cy="0" fill="#b5030d" stroke="#FFFFFF" fill-opacity="1" stroke-width="2" stroke-opacity="1" transform="translate(244,163)"></circle><circle r="4" cx="0" cy="0" fill="#b5030d" stroke="#FFFFFF" fill-opacity="1" stroke-width="2" stroke-opacity="1" transform="translate(270,157)"></circle><circle r="4" cx="0" cy="0" fill="#b5030d" stroke="#FFFFFF" fill-opacity="1" stroke-width="2" stroke-opacity="1" transform="translate(295,150)"></circle><circle r="4" cx="0" cy="0" fill="#b5030d" stroke="#FFFFFF" fill-opacity="1" stroke-width="2" stroke-opacity="1" transform="translate(321,143)"></circle><circle r="4" cx="0" cy="0" fill="#b5030d" stroke="#FFFFFF" fill-opacity="1" stroke-width="2" stroke-opacity="1" transform="translate(347,135)"></circle><circle r="4" cx="0" cy="0" fill="#b5030d" stroke="#FFFFFF" fill-opacity="1" stroke-width="2" stroke-opacity="1" transform="translate(372,126)"></circle><circle r="4" cx="0" cy="0" fill="#b5030d" stroke="#FFFFFF" fill-opacity="1" stroke-width="2" stroke-opacity="1" transform="translate(398,117)"></circle><circle r="4" cx="0" cy="0" fill="#b5030d" stroke="#FFFFFF" fill-opacity="1" stroke-width="2" stroke-opacity="1" transform="translate(424,106)"></circle><circle r="4" cx="0" cy="0" fill="#b5030d" stroke="#FFFFFF" fill-opacity="1" stroke-width="2" stroke-opacity="1" transform="translate(449,95)"></circle><circle r="4" cx="0" cy="0" fill="#b5030d" stroke="#FFFFFF" fill-opacity="1" stroke-width="2" stroke-opacity="1" transform="translate(475,83)"></circle></g><g transform="translate(71,20)"><circle r="4" cx="0" cy="0" fill="#495E88" stroke="#FFFFFF" fill-opacity="1" stroke-width="2" stroke-opacity="1" transform="translate(13,153)"></circle><circle r="4" cx="0" cy="0" fill="#495E88" stroke="#FFFFFF" fill-opacity="1" stroke-width="2" stroke-opacity="1" transform="translate(39,148)"></circle><circle r="4" cx="0" cy="0" fill="#495E88" stroke="#FFFFFF" fill-opacity="1" stroke-width="2" stroke-opacity="1" transform="translate(64,144)"></circle><circle r="4" cx="0" cy="0" fill="#495E88" stroke="#FFFFFF" fill-opacity="1" stroke-width="2" stroke-opacity="1" transform="translate(90,138)"></circle><circle r="4" cx="0" cy="0" fill="#495E88" stroke="#FFFFFF" fill-opacity="1" stroke-width="2" stroke-opacity="1" transform="translate(116,133)"></circle><circle r="4" cx="0" cy="0" fill="#495E88" stroke="#FFFFFF" fill-opacity="1" stroke-width="2" stroke-opacity="1" transform="translate(141,127)"></circle><circle r="4" cx="0" cy="0" fill="#495E88" stroke="#FFFFFF" fill-opacity="1" stroke-width="2" stroke-opacity="1" transform="translate(167,120)"></circle><circle r="4" cx="0" cy="0" fill="#495E88" stroke="#FFFFFF" fill-opacity="1" stroke-width="2" stroke-opacity="1" transform="translate(193,114)"></circle><circle r="4" cx="0" cy="0" fill="#495E88" stroke="#FFFFFF" fill-opacity="1" stroke-width="2" stroke-opacity="1" transform="translate(218,107)"></circle><circle r="4" cx="0" cy="0" fill="#495E88" stroke="#FFFFFF" fill-opacity="1" stroke-width="2" stroke-opacity="1" transform="translate(244,99)"></circle><circle r="4" cx="0" cy="0" fill="#495E88" stroke="#FFFFFF" fill-opacity="1" stroke-width="2" stroke-opacity="1" transform="translate(270,91)"></circle><circle r="4" cx="0" cy="0" fill="#495E88" stroke="#FFFFFF" fill-opacity="1" stroke-width="2" stroke-opacity="1" transform="translate(295,83)"></circle><circle r="4" cx="0" cy="0" fill="#495E88" stroke="#FFFFFF" fill-opacity="1" stroke-width="2" stroke-opacity="1" transform="translate(321,74)"></circle><circle r="4" cx="0" cy="0" fill="#495E88" stroke="#FFFFFF" fill-opacity="1" stroke-width="2" stroke-opacity="1" transform="translate(347,65)"></circle><circle r="4" cx="0" cy="0" fill="#495E88" stroke="#FFFFFF" fill-opacity="1" stroke-width="2" stroke-opacity="1" transform="translate(372,55)"></circle><circle r="4" cx="0" cy="0" fill="#495E88" stroke="#FFFFFF" fill-opacity="1" stroke-width="2" stroke-opacity="1" transform="translate(398,44)"></circle><circle r="4" cx="0" cy="0" fill="#495E88" stroke="#FFFFFF" fill-opacity="1" stroke-width="2" stroke-opacity="1" transform="translate(424,33)"></circle><circle r="4" cx="0" cy="0" fill="#495E88" stroke="#FFFFFF" fill-opacity="1" stroke-width="2" stroke-opacity="1" transform="translate(449,21)"></circle><circle r="4" cx="0" cy="0" fill="#495E88" stroke="#FFFFFF" fill-opacity="1" stroke-width="2" stroke-opacity="1" transform="translate(475,8)"></circle></g></g><g><g></g></g><g></g><g></g><g><g><rect x="0.5" y="0.5" width="145" height="20" rx="0" ry="0" stroke-width="0" fill="#FFFFFF" stroke="#FFFFFF" fill-opacity="1" stroke-opacity="1"></rect><text y="6.5" fill="#000000" font-family="Verdana" font-size="11" text-anchor="start" transform="translate(5,8)">chart by amcharts.com</text></g></g><clipPath id="AmChartsEl-57"><rect x="71" y="20" width="488" height="347" rx="0" ry="0" stroke-width="0"></rect></clipPath></svg>