<svg style="position: absolute; width: 580px; height: 400px; left: 0px; top: 0px; " version="1.1"><g></g><g><g transform="translate(66,20)"><g><path d="M26.5,0.5 L26.5,5.5" fill="none" stroke-dasharray="none" stroke-width="1" stroke-opacity="1" stroke="#DADADA" transform="translate(0,347)"></path><path d="M26.5,347.5 L26.5,347.5 L26.5,0.5" fill="none" stroke-dasharray="1" stroke-width="1" stroke-opacity="0.15" stroke="#000000"></path></g><g><path d="M208.5,0.5 L208.5,5.5" fill="none" stroke-dasharray="none" stroke-width="1" stroke-opacity="1" stroke="#DADADA" transform="translate(0,347)"></path><path d="M208.5,347.5 L208.5,347.5 L208.5,0.5" fill="none" stroke-dasharray="1" stroke-width="1" stroke-opacity="0.15" stroke="#000000"></path></g><g><path d="M389.5,0.5 L389.5,5.5" fill="none" stroke-dasharray="none" stroke-width="1" stroke-opacity="1" stroke="#DADADA" transform="translate(0,347)"></path><path d="M389.5,347.5 L389.5,347.5 L389.5,0.5" fill="none" stroke-dasharray="1" stroke-width="1" stroke-opacity="0.15" stroke="#000000"></path></g></g><g transform="translate(66,20)" visibility="visible"><g><path d="M0.5,347.5 L5.5,347.5" fill="none" stroke-dasharray="none" stroke-width="1" stroke-opacity="0.2" stroke="#000000" transform="translate(-6,0)"></path><path d="M0.5,347.5 L0.5,347.5 L493.5,347.5" fill="none" stroke-dasharray="1" stroke-width="1" stroke-opacity="0.15" stroke="#000000"></path></g><g><path d="M0.5,304.5 L5.5,304.5" fill="none" stroke-dasharray="none" stroke-width="1" stroke-opacity="0.2" stroke="#000000" transform="translate(-6,0)"></path><path d="M0.5,304.5 L0.5,304.5 L493.5,304.5" fill="none" stroke-dasharray="1" stroke-width="1" stroke-opacity="0.15" stroke="#000000"></path></g><g><path d="M0.5,260.5 L5.5,260.5" fill="none" stroke-dasharray="none" stroke-width="1" stroke-opacity="0.2" stroke="#000000" transform="translate(-6,0)"></path><path d="M0.5,260.5 L0.5,260.5 L493.5,260.5" fill="none" stroke-dasharray="1" stroke-width="1" stroke-opacity="0.15" stroke="#000000"></path></g><g><path d="M0.5,217.5 L5.5,217.5" fill="none" stroke-dasharray="none" stroke-width="1" stroke-opacity="0.2" stroke="#000000" transform="translate(-6,0)"></path><path d="M0.5,217.5 L0.5,217.5 L493.5,217.5" fill="none" stroke-dasharray="1" stroke-width="1" stroke-opacity="0.15" stroke="#000000"></path></g><g><path d="M0.5,174.5 L5.5,174.5" fill="none" stroke-dasharray="none" stroke-width="1" stroke-opacity="0.2" stroke="#000000" transform="translate(-6,0)"></path><path d="M0.5,174.5 L0.5,174.5 L493.5,174.5" fill="none" stroke-dasharray="1" stroke-width="1" stroke-opacity="0.15" stroke="#000000"></path></g><g><path d="M0.5,130.5 L5.5,130.5" fill="none" stroke-dasharray="none" stroke-width="1" stroke-opacity="0.2" stroke="#000000" transform="translate(-6,0)"></path><path d="M0.5,130.5 L0.5,130.5 L493.5,130.5" fill="none" stroke-dasharray="1" stroke-width="1" stroke-opacity="0.15" stroke="#000000"></path></g><g><path d="M0.5,87.5 L5.5,87.5" fill="none" stroke-dasharray="none" stroke-width="1" stroke-opacity="0.2" stroke="#000000" transform="translate(-6,0)"></path><path d="M0.5,87.5 L0.5,87.5 L493.5,87.5" fill="none" stroke-dasharray="1" stroke-width="1" stroke-opacity="0.15" stroke="#000000"></path></g><g><path d="M0.5,43.5 L5.5,43.5" fill="none" stroke-dasharray="none" stroke-width="1" stroke-opacity="0.2" stroke="#000000" transform="translate(-6,0)"></path><path d="M0.5,43.5 L0.5,43.5 L493.5,43.5" fill="none" stroke-dasharray="1" stroke-width="1" stroke-opacity="0.15" stroke="#000000"></path></g><g><path d="M0.5,0.5 L5.5,0.5" fill="none" stroke-dasharray="none" stroke-width="1" stroke-opacity="0.2" stroke="#000000" transform="translate(-6,0)"></path><path d="M0.5,0.5 L0.5,0.5 L493.5,0.5" fill="none" stroke-dasharray="1" stroke-width="1" stroke-opacity="0.15" stroke="#000000"></path></g></g></g><g></g><g><g transform="translate(66,20)"><g clip-path="url(#AmChartsEl-11)"><path d="M-12.5,260.5 L13.5,256.5 L39.5,251.5 L65.5,247.5 L91.5,242.5 L117.5,236.5 L143.5,231.5 L169.5,225.5 L195.5,219.5 L221.5,212.5 L247.5,206.5 L272.5,199.5 L298.5,191.5 L324.5,183.5 L350.5,175.5 L376.5,167.5 L402.5,158.5 L428.5,148.5 L454.5,138.5 L480.5,128.5" fill="none" stroke-dasharray="1" stroke-width="2" stroke-opacity="1" stroke="#3B5323"></path></g><g clip-path="url(#AmChartsEl-12)"><path d="M-12.5,260.5 L13.5,256.5 L39.5,251.5 L65.5,247.5 L91.5,242.5 L117.5,236.5 L143.5,231.5 L169.5,225.5 L195.5,219.5 L221.5,212.5 L247.5,206.5 L272.5,199.5 L298.5,191.5 L324.5,183.5 L350.5,175.5 L376.5,167.5 L402.5,158.5 L428.5,148.5 L454.5,138.5 L480.5,128.5" fill="none" stroke-dasharray="1" stroke-width="2" stroke-opacity="1" stroke="#3B5323"></path></g><clipPath id="AmChartsEl-11"><rect x="0" y="0" width="493" height="347" rx="0" ry="0" stroke-width="0"></rect></clipPath><clipPath id="AmChartsEl-12"><rect x="0" y="348" width="493" height="1" rx="0" ry="0" stroke-width="0"></rect></clipPath></g><g transform="translate(66,20)"><g clip-path="url(#AmChartsEl-13)"><path d="M-12.5,304.5 L13.5,300.5 L39.5,295.5 L65.5,291.5 L91.5,286.5 L117.5,280.5 L143.5,274.5 L169.5,268.5 L195.5,261.5 L221.5,253.5 L247.5,244.5 L272.5,235.5 L298.5,225.5 L324.5,214.5 L350.5,202.5 L376.5,189.5 L402.5,175.5 L428.5,159.5 L454.5,142.5 L480.5,124.5" fill="none" stroke-dasharray="1" stroke-width="2" stroke-opacity="1" stroke="#b5030d"></path></g><g clip-path="url(#AmChartsEl-14)"><path d="M-12.5,304.5 L13.5,300.5 L39.5,295.5 L65.5,291.5 L91.5,286.5 L117.5,280.5 L143.5,274.5 L169.5,268.5 L195.5,261.5 L221.5,253.5 L247.5,244.5 L272.5,235.5 L298.5,225.5 L324.5,214.5 L350.5,202.5 L376.5,189.5 L402.5,175.5 L428.5,159.5 L454.5,142.5 L480.5,124.5" fill="none" stroke-dasharray="1" stroke-width="2" stroke-opacity="1" stroke="#b5030d"></path></g><clipPath id="AmChartsEl-13"><rect x="0" y="0" width="493" height="347" rx="0" ry="0" stroke-width="0"></rect></clipPath><clipPath id="AmChartsEl-14"><rect x="0" y="348" width="493" height="1" rx="0" ry="0" stroke-width="0"></rect></clipPath></g><g transform="translate(66,20)"><g clip-path="url(#AmChartsEl-15)"><path d="M-12.5,236.5 L13.5,230.5 L39.5,223.5 L65.5,215.5 L91.5,207.5 L117.5,199.5 L143.5,190.5 L169.5,181.5 L195.5,171.5 L221.5,160.5 L247.5,149.5 L272.5,137.5 L298.5,124.5 L324.5,111.5 L350.5,97.5 L376.5,82.5 L402.5,66.5 L428.5,49.5 L454.5,31.5 L480.5,12.5" fill="none" stroke-dasharray="1" stroke-width="2" stroke-opacity="1" stroke="#495E88"></path></g><g clip-path="url(#AmChartsEl-16)"><path d="M-12.5,236.5 L13.5,230.5 L39.5,223.5 L65.5,215.5 L91.5,207.5 L117.5,199.5 L143.5,190.5 L169.5,181.5 L195.5,171.5 L221.5,160.5 L247.5,149.5 L272.5,137.5 L298.5,124.5 L324.5,111.5 L350.5,97.5 L376.5,82.5 L402.5,66.5 L428.5,49.5 L454.5,31.5 L480.5,12.5" fill="none" stroke-dasharray="1" stroke-width="2" stroke-opacity="1" stroke="#495E88"></path></g><clipPath id="AmChartsEl-15"><rect x="0" y="0" width="493" height="347" rx="0" ry="0" stroke-width="0"></rect></clipPath><clipPath id="AmChartsEl-16"><rect x="0" y="348" width="493" height="1" rx="0" ry="0" stroke-width="0"></rect></clipPath></g></g><g clip-path="url(#AmChartsEl-10)"></g><g><g transform="translate(66,20)"><text y="6.5" fill="#000000" font-family="Verdana" font-size="11" text-anchor="start" transform="translate(29,360)">Dec 20</text><text y="6.5" fill="#000000" font-family="Verdana" font-size="11" text-anchor="start" transform="translate(211,360)">Dec 27</text><text y="6.5" fill="#000000" font-family="Verdana" font-size="11" font-weight="bold" text-anchor="start" transform="translate(392,360)">Jan</text></g><g transform="translate(66,20)" visibility="visible"><text y="6.5" fill="#000000" font-family="Verdana" font-size="11" text-anchor="end" transform="translate(-12,345)">0</text><text y="6.5" fill="#000000" font-family="Verdana" font-size="11" text-anchor="end" transform="translate(-12,302)">5,000</text><text y="6.5" fill="#000000" font-family="Verdana" font-size="11" text-anchor="end" transform="translate(-12,258)">10,000</text><text y="6.5" fill="#000000" font-family="Verdana" font-size="11" text-anchor="end" transform="translate(-12,215)">15,000</text><text y="6.5" fill="#000000" font-family="Verdana" font-size="11" text-anchor="end" transform="translate(-12,172)">20,000</text><text y="6.5" fill="#000000" font-family="Verdana" font-size="11" text-anchor="end" transform="translate(-12,128)">25,000</text><text y="6.5" fill="#000000" font-family="Verdana" font-size="11" text-anchor="end" transform="translate(-12,85)">30,000</text><text y="6.5" fill="#000000" font-family="Verdana" font-size="11" text-anchor="end" transform="translate(-12,41)">35,000</text><text y="6.5" fill="#000000" font-family="Verdana" font-size="11" text-anchor="end" transform="translate(-12,-2)">40,000</text></g></g><g><path d="M0.5,0.5 L493.5,0.5" fill="none" stroke-dasharray="none" stroke-width="1" stroke-opacity="1" stroke="#DADADA" transform="translate(66,367)"></path><path d="M0.5,0.5 L0.5,347.5" fill="none" stroke-dasharray="none" stroke-width="1" stroke-opacity="0.2" stroke="#000000" transform="translate(66,20)" visibility="visible"></path><path d="M0.5,347.5 L493.5,347.5 L493.5,347.5" fill="none" stroke-dasharray="1" stroke-width="1" stroke-opacity="0.3" stroke="#000000" transform="translate(66,20)"></path></g><g><g transform="translate(66,20)" visibility="hidden"><path d="M0.5,0.5 L0.5,0.5 L0.5,346.5" fill="none" stroke-dasharray="none" stroke-width="1" stroke-opacity="1" stroke="#CC0000" visibility="hidden"></path></g></g><g></g><g><g transform="translate(66,20)"><circle r="4" cx="0" cy="0" fill="#3B5323" stroke="#FFFFFF" fill-opacity="1" stroke-width="2" stroke-opacity="1" transform="translate(13,256)"></circle><circle r="4" cx="0" cy="0" fill="#3B5323" stroke="#FFFFFF" fill-opacity="1" stroke-width="2" stroke-opacity="1" transform="translate(39,251)"></circle><circle r="4" cx="0" cy="0" fill="#3B5323" stroke="#FFFFFF" fill-opacity="1" stroke-width="2" stroke-opacity="1" transform="translate(65,247)"></circle><circle r="4" cx="0" cy="0" fill="#3B5323" stroke="#FFFFFF" fill-opacity="1" stroke-width="2" stroke-opacity="1" transform="translate(91,242)"></circle><circle r="4" cx="0" cy="0" fill="#3B5323" stroke="#FFFFFF" fill-opacity="1" stroke-width="2" stroke-opacity="1" transform="translate(117,236)"></circle><circle r="4" cx="0" cy="0" fill="#3B5323" stroke="#FFFFFF" fill-opacity="1" stroke-width="2" stroke-opacity="1" transform="translate(143,231)"></circle><circle r="4" cx="0" cy="0" fill="#3B5323" stroke="#FFFFFF" fill-opacity="1" stroke-width="2" stroke-opacity="1" transform="translate(169,225)"></circle><circle r="4" cx="0" cy="0" fill="#3B5323" stroke="#FFFFFF" fill-opacity="1" stroke-width="2" stroke-opacity="1" transform="translate(195,219)"></circle><circle r="4" cx="0" cy="0" fill="#3B5323" stroke="#FFFFFF" fill-opacity="1" stroke-width="2" stroke-opacity="1" transform="translate(221,212)"></circle><circle r="4" cx="0" cy="0" fill="#3B5323" stroke="#FFFFFF" fill-opacity="1" stroke-width="2" stroke-opacity="1" transform="translate(247,206)"></circle><circle r="4" cx="0" cy="0" fill="#3B5323" stroke="#FFFFFF" fill-opacity="1" stroke-width="2" stroke-opacity="1" transform="translate(272,199)"></circle><circle r="4" cx="0" cy="0" fill="#3B5323" stroke="#FFFFFF" fill-opacity="1" stroke-width="2" stroke-opacity="1" transform="translate(298,191)"></circle><circle r="4" cx="0" cy="0" fill="#3B5323" stroke="#FFFFFF" fill-opacity="1" stroke-width="2" stroke-opacity="1" transform="translate(324,183)"></circle><circle r="4" cx="0" cy="0" fill="#3B5323" stroke="#FFFFFF" fill-opacity="1" stroke-width="2" stroke-opacity="1" transform="translate(350,175)"></circle><circle r="4" cx="0" cy="0" fill="#3B5323" stroke="#FFFFFF" fill-opacity="1" stroke-width="2" stroke-opacity="1" transform="translate(376,167)"></circle><circle r="4" cx="0" cy="0" fill="#3B5323" stroke="#FFFFFF" fill-opacity="1" stroke-width="2" stroke-opacity="1" transform="translate(402,158)"></circle><circle r="4" cx="0" cy="0" fill="#3B5323" stroke="#FFFFFF" fill-opacity="1" stroke-width="2" stroke-opacity="1" transform="translate(428,148)"></circle><circle r="4" cx="0" cy="0" fill="#3B5323" stroke="#FFFFFF" fill-opacity="1" stroke-width="2" stroke-opacity="1" transform="translate(454,138)"></circle><circle r="4" cx="0" cy="0" fill="#3B5323" stroke="#FFFFFF" fill-opacity="1" stroke-width="2" stroke-opacity="1" transform="translate(480,128)"></circle></g><g transform="translate(66,20)"><circle r="4" cx="0" cy="0" fill="#b5030d" stroke="#FFFFFF" fill-opacity="1" stroke-width="2" stroke-opacity="1" transform="translate(13,300)"></circle><circle r="4" cx="0" cy="0" fill="#b5030d" stroke="#FFFFFF" fill-opacity="1" stroke-width="2" stroke-opacity="1" transform="translate(39,295)"></circle><circle r="4" cx="0" cy="0" fill="#b5030d" stroke="#FFFFFF" fill-opacity="1" stroke-width="2" stroke-opacity="1" transform="translate(65,291)"></circle><circle r="4" cx="0" cy="0" fill="#b5030d" stroke="#FFFFFF" fill-opacity="1" stroke-width="2" stroke-opacity="1" transform="translate(91,286)"></circle><circle r="4" cx="0" cy="0" fill="#b5030d" stroke="#FFFFFF" fill-opacity="1" stroke-width="2" stroke-opacity="1" transform="translate(117,280)"></circle><circle r="4" cx="0" cy="0" fill="#b5030d" stroke="#FFFFFF" fill-opacity="1" stroke-width="2" stroke-opacity="1" transform="translate(143,274)"></circle><circle r="4" cx="0" cy="0" fill="#b5030d" stroke="#FFFFFF" fill-opacity="1" stroke-width="2" stroke-opacity="1" transform="translate(169,268)"></circle><circle r="4" cx="0" cy="0" fill="#b5030d" stroke="#FFFFFF" fill-opacity="1" stroke-width="2" stroke-opacity="1" transform="translate(195,261)"></circle><circle r="4" cx="0" cy="0" fill="#b5030d" stroke="#FFFFFF" fill-opacity="1" stroke-width="2" stroke-opacity="1" transform="translate(221,253)"></circle><circle r="4" cx="0" cy="0" fill="#b5030d" stroke="#FFFFFF" fill-opacity="1" stroke-width="2" stroke-opacity="1" transform="translate(247,244)"></circle><circle r="4" cx="0" cy="0" fill="#b5030d" stroke="#FFFFFF" fill-opacity="1" stroke-width="2" stroke-opacity="1" transform="translate(272,235)"></circle><circle r="4" cx="0" cy="0" fill="#b5030d" stroke="#FFFFFF" fill-opacity="1" stroke-width="2" stroke-opacity="1" transform="translate(298,225)"></circle><circle r="4" cx="0" cy="0" fill="#b5030d" stroke="#FFFFFF" fill-opacity="1" stroke-width="2" stroke-opacity="1" transform="translate(324,214)"></circle><circle r="4" cx="0" cy="0" fill="#b5030d" stroke="#FFFFFF" fill-opacity="1" stroke-width="2" stroke-opacity="1" transform="translate(350,202)"></circle><circle r="4" cx="0" cy="0" fill="#b5030d" stroke="#FFFFFF" fill-opacity="1" stroke-width="2" stroke-opacity="1" transform="translate(376,189)"></circle><circle r="4" cx="0" cy="0" fill="#b5030d" stroke="#FFFFFF" fill-opacity="1" stroke-width="2" stroke-opacity="1" transform="translate(402,175)"></circle><circle r="4" cx="0" cy="0" fill="#b5030d" stroke="#FFFFFF" fill-opacity="1" stroke-width="2" stroke-opacity="1" transform="translate(428,159)"></circle><circle r="4" cx="0" cy="0" fill="#b5030d" stroke="#FFFFFF" fill-opacity="1" stroke-width="2" stroke-opacity="1" transform="translate(454,142)"></circle><circle r="4" cx="0" cy="0" fill="#b5030d" stroke="#FFFFFF" fill-opacity="1" stroke-width="2" stroke-opacity="1" transform="translate(480,124)"></circle></g><g transform="translate(66,20)"><circle r="4" cx="0" cy="0" fill="#495E88" stroke="#FFFFFF" fill-opacity="1" stroke-width="2" stroke-opacity="1" transform="translate(13,230)"></circle><circle r="4" cx="0" cy="0" fill="#495E88" stroke="#FFFFFF" fill-opacity="1" stroke-width="2" stroke-opacity="1" transform="translate(39,223)"></circle><circle r="4" cx="0" cy="0" fill="#495E88" stroke="#FFFFFF" fill-opacity="1" stroke-width="2" stroke-opacity="1" transform="translate(65,215)"></circle><circle r="4" cx="0" cy="0" fill="#495E88" stroke="#FFFFFF" fill-opacity="1" stroke-width="2" stroke-opacity="1" transform="translate(91,207)"></circle><circle r="4" cx="0" cy="0" fill="#495E88" stroke="#FFFFFF" fill-opacity="1" stroke-width="2" stroke-opacity="1" transform="translate(117,199)"></circle><circle r="4" cx="0" cy="0" fill="#495E88" stroke="#FFFFFF" fill-opacity="1" stroke-width="2" stroke-opacity="1" transform="translate(143,190)"></circle><circle r="4" cx="0" cy="0" fill="#495E88" stroke="#FFFFFF" fill-opacity="1" stroke-width="2" stroke-opacity="1" transform="translate(169,181)"></circle><circle r="4" cx="0" cy="0" fill="#495E88" stroke="#FFFFFF" fill-opacity="1" stroke-width="2" stroke-opacity="1" transform="translate(195,171)"></circle><circle r="4" cx="0" cy="0" fill="#495E88" stroke="#FFFFFF" fill-opacity="1" stroke-width="2" stroke-opacity="1" transform="translate(221,160)"></circle><circle r="4" cx="0" cy="0" fill="#495E88" stroke="#FFFFFF" fill-opacity="1" stroke-width="2" stroke-opacity="1" transform="translate(247,149)"></circle><circle r="4" cx="0" cy="0" fill="#495E88" stroke="#FFFFFF" fill-opacity="1" stroke-width="2" stroke-opacity="1" transform="translate(272,137)"></circle><circle r="4" cx="0" cy="0" fill="#495E88" stroke="#FFFFFF" fill-opacity="1" stroke-width="2" stroke-opacity="1" transform="translate(298,124)"></circle><circle r="4" cx="0" cy="0" fill="#495E88" stroke="#FFFFFF" fill-opacity="1" stroke-width="2" stroke-opacity="1" transform="translate(324,111)"></circle><circle r="4" cx="0" cy="0" fill="#495E88" stroke="#FFFFFF" fill-opacity="1" stroke-width="2" stroke-opacity="1" transform="translate(350,97)"></circle><circle r="4" cx="0" cy="0" fill="#495E88" stroke="#FFFFFF" fill-opacity="1" stroke-width="2" stroke-opacity="1" transform="translate(376,82)"></circle><circle r="4" cx="0" cy="0" fill="#495E88" stroke="#FFFFFF" fill-opacity="1" stroke-width="2" stroke-opacity="1" transform="translate(402,66)"></circle><circle r="4" cx="0" cy="0" fill="#495E88" stroke="#FFFFFF" fill-opacity="1" stroke-width="2" stroke-opacity="1" transform="translate(428,49)"></circle><circle r="4" cx="0" cy="0" fill="#495E88" stroke="#FFFFFF" fill-opacity="1" stroke-width="2" stroke-opacity="1" transform="translate(454,31)"></circle><circle r="4" cx="0" cy="0" fill="#495E88" stroke="#FFFFFF" fill-opacity="1" stroke-width="2" stroke-opacity="1" transform="translate(480,12)"></circle></g></g><g><g></g></g><g></g><g></g><g><g><rect x="0.5" y="0.5" width="145" height="20" rx="0" ry="0" stroke-width="0" fill="#FFFFFF" stroke="#FFFFFF" fill-opacity="1" stroke-opacity="1"></rect><text y="6.5" fill="#000000" font-family="Verdana" font-size="11" text-anchor="start" transform="translate(5,8)">chart by amcharts.com</text></g></g><clipPath id="AmChartsEl-10"><rect x="66" y="20" width="493" height="347" rx="0" ry="0" stroke-width="0"></rect></clipPath></svg>