<svg style="position: absolute; width: 579px; height: 399px; left: 0px; top: 0px; " version="1.1" xmlns="http://www.w3.org/2000/svg"><g></g><g><g transform="translate(71,20)"><g><path d="M103.5,0.5 L103.5,5.5" fill="none" stroke-dasharray="none" stroke-width="1" stroke-opacity="1" stroke="#DADADA" transform="translate(0,347)"></path><path d="M103.5,347.5 L103.5,347.5 L103.5,0.5" fill="none" stroke-dasharray="1" stroke-width="1" stroke-opacity="0.15" stroke="#000000"></path></g><g><path d="M283.5,0.5 L283.5,5.5" fill="none" stroke-dasharray="none" stroke-width="1" stroke-opacity="1" stroke="#DADADA" transform="translate(0,347)"></path><path d="M283.5,347.5 L283.5,347.5 L283.5,0.5" fill="none" stroke-dasharray="1" stroke-width="1" stroke-opacity="0.15" stroke="#000000"></path></g><g><path d="M462.5,0.5 L462.5,5.5" fill="none" stroke-dasharray="none" stroke-width="1" stroke-opacity="1" stroke="#DADADA" transform="translate(0,347)"></path><path d="M462.5,347.5 L462.5,347.5 L462.5,0.5" fill="none" stroke-dasharray="1" stroke-width="1" stroke-opacity="0.15" stroke="#000000"></path></g></g><g transform="translate(71,20)" visibility="visible"><g><path d="M0.5,347.5 L5.5,347.5" fill="none" stroke-dasharray="none" stroke-width="1" stroke-opacity="0.2" stroke="#000000" transform="translate(-6,0)"></path><path d="M0.5,347.5 L0.5,347.5 L488.5,347.5" fill="none" stroke-dasharray="1" stroke-width="1" stroke-opacity="0.15" stroke="#000000"></path></g><g><path d="M0.5,297.5 L5.5,297.5" fill="none" stroke-dasharray="none" stroke-width="1" stroke-opacity="0.2" stroke="#000000" transform="translate(-6,0)"></path><path d="M0.5,297.5 L0.5,297.5 L488.5,297.5" fill="none" stroke-dasharray="1" stroke-width="1" stroke-opacity="0.15" stroke="#000000"></path></g><g><path d="M0.5,248.5 L5.5,248.5" fill="none" stroke-dasharray="none" stroke-width="1" stroke-opacity="0.2" stroke="#000000" transform="translate(-6,0)"></path><path d="M0.5,248.5 L0.5,248.5 L488.5,248.5" fill="none" stroke-dasharray="1" stroke-width="1" stroke-opacity="0.15" stroke="#000000"></path></g><g><path d="M0.5,198.5 L5.5,198.5" fill="none" stroke-dasharray="none" stroke-width="1" stroke-opacity="0.2" stroke="#000000" transform="translate(-6,0)"></path><path d="M0.5,198.5 L0.5,198.5 L488.5,198.5" fill="none" stroke-dasharray="1" stroke-width="1" stroke-opacity="0.15" stroke="#000000"></path></g><g><path d="M0.5,149.5 L5.5,149.5" fill="none" stroke-dasharray="none" stroke-width="1" stroke-opacity="0.2" stroke="#000000" transform="translate(-6,0)"></path><path d="M0.5,149.5 L0.5,149.5 L488.5,149.5" fill="none" stroke-dasharray="1" stroke-width="1" stroke-opacity="0.15" stroke="#000000"></path></g><g><path d="M0.5,99.5 L5.5,99.5" fill="none" stroke-dasharray="none" stroke-width="1" stroke-opacity="0.2" stroke="#000000" transform="translate(-6,0)"></path><path d="M0.5,99.5 L0.5,99.5 L488.5,99.5" fill="none" stroke-dasharray="1" stroke-width="1" stroke-opacity="0.15" stroke="#000000"></path></g><g><path d="M0.5,50.5 L5.5,50.5" fill="none" stroke-dasharray="none" stroke-width="1" stroke-opacity="0.2" stroke="#000000" transform="translate(-6,0)"></path><path d="M0.5,50.5 L0.5,50.5 L488.5,50.5" fill="none" stroke-dasharray="1" stroke-width="1" stroke-opacity="0.15" stroke="#000000"></path></g><g><path d="M0.5,0.5 L5.5,0.5" fill="none" stroke-dasharray="none" stroke-width="1" stroke-opacity="0.2" stroke="#000000" transform="translate(-6,0)"></path><path d="M0.5,0.5 L0.5,0.5 L488.5,0.5" fill="none" stroke-dasharray="1" stroke-width="1" stroke-opacity="0.15" stroke="#000000"></path></g></g></g><g></g><g><g transform="translate(71,20)"><g clip-path="url(#AmChartsEl-31)"><path d="M-12.5,99.5 L13.5,97.5 L39.5,94.5 L64.5,91.5 L90.5,88.5 L116.5,85.5 L141.5,82.5 L167.5,79.5 L193.5,75.5 L218.5,72.5 L244.5,68.5 L270.5,64.5 L295.5,60.5 L321.5,55.5 L347.5,51.5 L372.5,46.5 L398.5,41.5 L424.5,35.5 L449.5,29.5 L475.5,23.5" fill="none" stroke-dasharray="1" stroke-width="2" stroke-opacity="1" stroke="#3B5323"></path></g><g clip-path="url(#AmChartsEl-32)"><path d="M-12.5,99.5 L13.5,97.5 L39.5,94.5 L64.5,91.5 L90.5,88.5 L116.5,85.5 L141.5,82.5 L167.5,79.5 L193.5,75.5 L218.5,72.5 L244.5,68.5 L270.5,64.5 L295.5,60.5 L321.5,55.5 L347.5,51.5 L372.5,46.5 L398.5,41.5 L424.5,35.5 L449.5,29.5 L475.5,23.5" fill="none" stroke-dasharray="1" stroke-width="2" stroke-opacity="1" stroke="#3B5323"></path></g><clipPath id="AmChartsEl-31"><rect x="0" y="0" width="488" height="149" rx="0" ry="0" stroke-width="0"></rect></clipPath><clipPath id="AmChartsEl-32"><rect x="0" y="150" width="488" height="198" rx="0" ry="0" stroke-width="0"></rect></clipPath></g><g transform="translate(71,20)"><g clip-path="url(#AmChartsEl-33)"><path d="M-12.5,124.5 L13.5,122.5 L39.5,119.5 L64.5,117.5 L90.5,114.5 L116.5,111.5 L141.5,107.5 L167.5,103.5 L193.5,99.5 L218.5,95.5 L244.5,90.5 L270.5,85.5 L295.5,79.5 L321.5,73.5 L347.5,66.5 L372.5,58.5 L398.5,50.5 L424.5,41.5 L449.5,32.5 L475.5,21.5" fill="none" stroke-dasharray="1" stroke-width="2" stroke-opacity="1" stroke="#b5030d"></path></g><g clip-path="url(#AmChartsEl-34)"><path d="M-12.5,124.5 L13.5,122.5 L39.5,119.5 L64.5,117.5 L90.5,114.5 L116.5,111.5 L141.5,107.5 L167.5,103.5 L193.5,99.5 L218.5,95.5 L244.5,90.5 L270.5,85.5 L295.5,79.5 L321.5,73.5 L347.5,66.5 L372.5,58.5 L398.5,50.5 L424.5,41.5 L449.5,32.5 L475.5,21.5" fill="none" stroke-dasharray="1" stroke-width="2" stroke-opacity="1" stroke="#b5030d"></path></g><clipPath id="AmChartsEl-33"><rect x="0" y="0" width="488" height="149" rx="0" ry="0" stroke-width="0"></rect></clipPath><clipPath id="AmChartsEl-34"><rect x="0" y="150" width="488" height="198" rx="0" ry="0" stroke-width="0"></rect></clipPath></g><g transform="translate(71,20)"><g clip-path="url(#AmChartsEl-35)"><path d="M-12.5,212.5 L13.5,216.5 L39.5,220.5 L64.5,224.5 L90.5,229.5 L116.5,233.5 L141.5,238.5 L167.5,244.5 L193.5,249.5 L218.5,255.5 L244.5,262.5 L270.5,269.5 L295.5,276.5 L321.5,284.5 L347.5,292.5 L372.5,300.5 L398.5,309.5 L424.5,319.5 L449.5,329.5 L475.5,340.5" fill="none" stroke-dasharray="1" stroke-width="2" stroke-opacity="1" stroke="#495E88"></path></g><g clip-path="url(#AmChartsEl-36)"><path d="M-12.5,212.5 L13.5,216.5 L39.5,220.5 L64.5,224.5 L90.5,229.5 L116.5,233.5 L141.5,238.5 L167.5,244.5 L193.5,249.5 L218.5,255.5 L244.5,262.5 L270.5,269.5 L295.5,276.5 L321.5,284.5 L347.5,292.5 L372.5,300.5 L398.5,309.5 L424.5,319.5 L449.5,329.5 L475.5,340.5" fill="none" stroke-dasharray="1" stroke-width="2" stroke-opacity="1" stroke="#495E88"></path></g><clipPath id="AmChartsEl-35"><rect x="0" y="0" width="488" height="149" rx="0" ry="0" stroke-width="0"></rect></clipPath><clipPath id="AmChartsEl-36"><rect x="0" y="150" width="488" height="198" rx="0" ry="0" stroke-width="0"></rect></clipPath></g></g><g clip-path="url(#AmChartsEl-30)"></g><g><g transform="translate(71,20)"><text y="6.5" fill="#000000" font-family="Verdana" font-size="11" text-anchor="start" transform="translate(106,360)">Dec 20</text><text y="6.5" fill="#000000" font-family="Verdana" font-size="11" text-anchor="start" transform="translate(286,360)">Dec 27</text><text y="6.5" fill="#000000" font-family="Verdana" font-size="11" font-weight="bold" text-anchor="start" transform="translate(465,360)">Jan</text></g><g transform="translate(71,20)" visibility="visible"><text y="6.5" fill="#000000" font-family="Verdana" font-size="11" text-anchor="end" transform="translate(-12,345)">-40,000</text><text y="6.5" fill="#000000" font-family="Verdana" font-size="11" text-anchor="end" transform="translate(-12,295)">-30,000</text><text y="6.5" fill="#000000" font-family="Verdana" font-size="11" text-anchor="end" transform="translate(-12,246)">-20,000</text><text y="6.5" fill="#000000" font-family="Verdana" font-size="11" text-anchor="end" transform="translate(-12,196)">-10,000</text><text y="6.5" fill="#000000" font-family="Verdana" font-size="11" text-anchor="end" transform="translate(-12,147)">0</text><text y="6.5" fill="#000000" font-family="Verdana" font-size="11" text-anchor="end" transform="translate(-12,97)">10,000</text><text y="6.5" fill="#000000" font-family="Verdana" font-size="11" text-anchor="end" transform="translate(-12,48)">20,000</text><text y="6.5" fill="#000000" font-family="Verdana" font-size="11" text-anchor="end" transform="translate(-12,-2)">30,000</text></g></g><g><path d="M0.5,0.5 L488.5,0.5" fill="none" stroke-dasharray="none" stroke-width="1" stroke-opacity="1" stroke="#DADADA" transform="translate(71,367)"></path><path d="M0.5,0.5 L0.5,347.5" fill="none" stroke-dasharray="none" stroke-width="1" stroke-opacity="0.2" stroke="#000000" transform="translate(71,20)" visibility="visible"></path><path d="M0.5,149.5 L488.5,149.5 L488.5,149.5" fill="none" stroke-dasharray="1" stroke-width="1" stroke-opacity="0.3" stroke="#000000" transform="translate(71,20)"></path></g><g><g transform="translate(71,20)" visibility="hidden"><path d="M0.5,0.5 L0.5,0.5 L0.5,346.5" fill="none" stroke-dasharray="none" stroke-width="1" stroke-opacity="1" stroke="#CC0000" visibility="hidden"></path></g></g><g></g><g><g transform="translate(71,20)"><circle r="4" cx="0" cy="0" fill="#3B5323" stroke="#FFFFFF" fill-opacity="1" stroke-width="2" stroke-opacity="1" transform="translate(13,97)"></circle><circle r="4" cx="0" cy="0" fill="#3B5323" stroke="#FFFFFF" fill-opacity="1" stroke-width="2" stroke-opacity="1" transform="translate(39,94)"></circle><circle r="4" cx="0" cy="0" fill="#3B5323" stroke="#FFFFFF" fill-opacity="1" stroke-width="2" stroke-opacity="1" transform="translate(64,91)"></circle><circle r="4" cx="0" cy="0" fill="#3B5323" stroke="#FFFFFF" fill-opacity="1" stroke-width="2" stroke-opacity="1" transform="translate(90,88)"></circle><circle r="4" cx="0" cy="0" fill="#3B5323" stroke="#FFFFFF" fill-opacity="1" stroke-width="2" stroke-opacity="1" transform="translate(116,85)"></circle><circle r="4" cx="0" cy="0" fill="#3B5323" stroke="#FFFFFF" fill-opacity="1" stroke-width="2" stroke-opacity="1" transform="translate(141,82)"></circle><circle r="4" cx="0" cy="0" fill="#3B5323" stroke="#FFFFFF" fill-opacity="1" stroke-width="2" stroke-opacity="1" transform="translate(167,79)"></circle><circle r="4" cx="0" cy="0" fill="#3B5323" stroke="#FFFFFF" fill-opacity="1" stroke-width="2" stroke-opacity="1" transform="translate(193,75)"></circle><circle r="4" cx="0" cy="0" fill="#3B5323" stroke="#FFFFFF" fill-opacity="1" stroke-width="2" stroke-opacity="1" transform="translate(218,72)"></circle><circle r="4" cx="0" cy="0" fill="#3B5323" stroke="#FFFFFF" fill-opacity="1" stroke-width="2" stroke-opacity="1" transform="translate(244,68)"></circle><circle r="4" cx="0" cy="0" fill="#3B5323" stroke="#FFFFFF" fill-opacity="1" stroke-width="2" stroke-opacity="1" transform="translate(270,64)"></circle><circle r="4" cx="0" cy="0" fill="#3B5323" stroke="#FFFFFF" fill-opacity="1" stroke-width="2" stroke-opacity="1" transform="translate(295,60)"></circle><circle r="4" cx="0" cy="0" fill="#3B5323" stroke="#FFFFFF" fill-opacity="1" stroke-width="2" stroke-opacity="1" transform="translate(321,55)"></circle><circle r="4" cx="0" cy="0" fill="#3B5323" stroke="#FFFFFF" fill-opacity="1" stroke-width="2" stroke-opacity="1" transform="translate(347,51)"></circle><circle r="4" cx="0" cy="0" fill="#3B5323" stroke="#FFFFFF" fill-opacity="1" stroke-width="2" stroke-opacity="1" transform="translate(372,46)"></circle><circle r="4" cx="0" cy="0" fill="#3B5323" stroke="#FFFFFF" fill-opacity="1" stroke-width="2" stroke-opacity="1" transform="translate(398,41)"></circle><circle r="4" cx="0" cy="0" fill="#3B5323" stroke="#FFFFFF" fill-opacity="1" stroke-width="2" stroke-opacity="1" transform="translate(424,35)"></circle><circle r="4" cx="0" cy="0" fill="#3B5323" stroke="#FFFFFF" fill-opacity="1" stroke-width="2" stroke-opacity="1" transform="translate(449,29)"></circle><circle r="4" cx="0" cy="0" fill="#3B5323" stroke="#FFFFFF" fill-opacity="1" stroke-width="2" stroke-opacity="1" transform="translate(475,23)"></circle></g><g transform="translate(71,20)"><circle r="4" cx="0" cy="0" fill="#b5030d" stroke="#FFFFFF" fill-opacity="1" stroke-width="2" stroke-opacity="1" transform="translate(13,122)"></circle><circle r="4" cx="0" cy="0" fill="#b5030d" stroke="#FFFFFF" fill-opacity="1" stroke-width="2" stroke-opacity="1" transform="translate(39,119)"></circle><circle r="4" cx="0" cy="0" fill="#b5030d" stroke="#FFFFFF" fill-opacity="1" stroke-width="2" stroke-opacity="1" transform="translate(64,117)"></circle><circle r="4" cx="0" cy="0" fill="#b5030d" stroke="#FFFFFF" fill-opacity="1" stroke-width="2" stroke-opacity="1" transform="translate(90,114)"></circle><circle r="4" cx="0" cy="0" fill="#b5030d" stroke="#FFFFFF" fill-opacity="1" stroke-width="2" stroke-opacity="1" transform="translate(116,111)"></circle><circle r="4" cx="0" cy="0" fill="#b5030d" stroke="#FFFFFF" fill-opacity="1" stroke-width="2" stroke-opacity="1" transform="translate(141,107)"></circle><circle r="4" cx="0" cy="0" fill="#b5030d" stroke="#FFFFFF" fill-opacity="1" stroke-width="2" stroke-opacity="1" transform="translate(167,103)"></circle><circle r="4" cx="0" cy="0" fill="#b5030d" stroke="#FFFFFF" fill-opacity="1" stroke-width="2" stroke-opacity="1" transform="translate(193,99)"></circle><circle r="4" cx="0" cy="0" fill="#b5030d" stroke="#FFFFFF" fill-opacity="1" stroke-width="2" stroke-opacity="1" transform="translate(218,95)"></circle><circle r="4" cx="0" cy="0" fill="#b5030d" stroke="#FFFFFF" fill-opacity="1" stroke-width="2" stroke-opacity="1" transform="translate(244,90)"></circle><circle r="4" cx="0" cy="0" fill="#b5030d" stroke="#FFFFFF" fill-opacity="1" stroke-width="2" stroke-opacity="1" transform="translate(270,85)"></circle><circle r="4" cx="0" cy="0" fill="#b5030d" stroke="#FFFFFF" fill-opacity="1" stroke-width="2" stroke-opacity="1" transform="translate(295,79)"></circle><circle r="4" cx="0" cy="0" fill="#b5030d" stroke="#FFFFFF" fill-opacity="1" stroke-width="2" stroke-opacity="1" transform="translate(321,73)"></circle><circle r="4" cx="0" cy="0" fill="#b5030d" stroke="#FFFFFF" fill-opacity="1" stroke-width="2" stroke-opacity="1" transform="translate(347,66)"></circle><circle r="4" cx="0" cy="0" fill="#b5030d" stroke="#FFFFFF" fill-opacity="1" stroke-width="2" stroke-opacity="1" transform="translate(372,58)"></circle><circle r="4" cx="0" cy="0" fill="#b5030d" stroke="#FFFFFF" fill-opacity="1" stroke-width="2" stroke-opacity="1" transform="translate(398,50)"></circle><circle r="4" cx="0" cy="0" fill="#b5030d" stroke="#FFFFFF" fill-opacity="1" stroke-width="2" stroke-opacity="1" transform="translate(424,41)"></circle><circle r="4" cx="0" cy="0" fill="#b5030d" stroke="#FFFFFF" fill-opacity="1" stroke-width="2" stroke-opacity="1" transform="translate(449,32)"></circle><circle r="4" cx="0" cy="0" fill="#b5030d" stroke="#FFFFFF" fill-opacity="1" stroke-width="2" stroke-opacity="1" transform="translate(475,21)"></circle></g><g transform="translate(71,20)"><circle r="4" cx="0" cy="0" fill="#495E88" stroke="#FFFFFF" fill-opacity="1" stroke-width="2" stroke-opacity="1" transform="translate(13,216)"></circle><circle r="4" cx="0" cy="0" fill="#495E88" stroke="#FFFFFF" fill-opacity="1" stroke-width="2" stroke-opacity="1" transform="translate(39,220)"></circle><circle r="4" cx="0" cy="0" fill="#495E88" stroke="#FFFFFF" fill-opacity="1" stroke-width="2" stroke-opacity="1" transform="translate(64,224)"></circle><circle r="4" cx="0" cy="0" fill="#495E88" stroke="#FFFFFF" fill-opacity="1" stroke-width="2" stroke-opacity="1" transform="translate(90,229)"></circle><circle r="4" cx="0" cy="0" fill="#495E88" stroke="#FFFFFF" fill-opacity="1" stroke-width="2" stroke-opacity="1" transform="translate(116,233)"></circle><circle r="4" cx="0" cy="0" fill="#495E88" stroke="#FFFFFF" fill-opacity="1" stroke-width="2" stroke-opacity="1" transform="translate(141,238)"></circle><circle r="4" cx="0" cy="0" fill="#495E88" stroke="#FFFFFF" fill-opacity="1" stroke-width="2" stroke-opacity="1" transform="translate(167,244)"></circle><circle r="4" cx="0" cy="0" fill="#495E88" stroke="#FFFFFF" fill-opacity="1" stroke-width="2" stroke-opacity="1" transform="translate(193,249)"></circle><circle r="4" cx="0" cy="0" fill="#495E88" stroke="#FFFFFF" fill-opacity="1" stroke-width="2" stroke-opacity="1" transform="translate(218,255)"></circle><circle r="4" cx="0" cy="0" fill="#495E88" stroke="#FFFFFF" fill-opacity="1" stroke-width="2" stroke-opacity="1" transform="translate(244,262)"></circle><circle r="4" cx="0" cy="0" fill="#495E88" stroke="#FFFFFF" fill-opacity="1" stroke-width="2" stroke-opacity="1" transform="translate(270,269)"></circle><circle r="4" cx="0" cy="0" fill="#495E88" stroke="#FFFFFF" fill-opacity="1" stroke-width="2" stroke-opacity="1" transform="translate(295,276)"></circle><circle r="4" cx="0" cy="0" fill="#495E88" stroke="#FFFFFF" fill-opacity="1" stroke-width="2" stroke-opacity="1" transform="translate(321,284)"></circle><circle r="4" cx="0" cy="0" fill="#495E88" stroke="#FFFFFF" fill-opacity="1" stroke-width="2" stroke-opacity="1" transform="translate(347,292)"></circle><circle r="4" cx="0" cy="0" fill="#495E88" stroke="#FFFFFF" fill-opacity="1" stroke-width="2" stroke-opacity="1" transform="translate(372,300)"></circle><circle r="4" cx="0" cy="0" fill="#495E88" stroke="#FFFFFF" fill-opacity="1" stroke-width="2" stroke-opacity="1" transform="translate(398,309)"></circle><circle r="4" cx="0" cy="0" fill="#495E88" stroke="#FFFFFF" fill-opacity="1" stroke-width="2" stroke-opacity="1" transform="translate(424,319)"></circle><circle r="4" cx="0" cy="0" fill="#495E88" stroke="#FFFFFF" fill-opacity="1" stroke-width="2" stroke-opacity="1" transform="translate(449,329)"></circle><circle r="4" cx="0" cy="0" fill="#495E88" stroke="#FFFFFF" fill-opacity="1" stroke-width="2" stroke-opacity="1" transform="translate(475,340)"></circle></g></g><g><g></g></g><g></g><g></g><g><g><rect x="0.5" y="0.5" width="145" height="20" rx="0" ry="0" stroke-width="0" fill="#FFFFFF" stroke="#FFFFFF" fill-opacity="1" stroke-opacity="1"></rect><text y="6.5" fill="#000000" font-family="Verdana" font-size="11" text-anchor="start" transform="translate(5,8)">chart by amcharts.com</text></g></g><clipPath id="AmChartsEl-30"><rect x="71" y="20" width="488" height="347" rx="0" ry="0" stroke-width="0"></rect></clipPath></svg>