<svg style="position: absolute; width: 579px; height: 399px; left: 0px; top: 0px; " version="1.1" xmlns="http://www.w3.org/2000/svg"><g></g><g><g transform="translate(114,20)"><g><path d="M94.5,0.5 L94.5,5.5" fill="none" stroke-dasharray="none" stroke-width="1" stroke-opacity="1" stroke="#DADADA" transform="translate(0,347)"></path><path d="M94.5,347.5 L94.5,347.5 L94.5,0.5" fill="none" stroke-dasharray="1" stroke-width="1" stroke-opacity="0.15" stroke="#000000"></path></g><g><path d="M258.5,0.5 L258.5,5.5" fill="none" stroke-dasharray="none" stroke-width="1" stroke-opacity="1" stroke="#DADADA" transform="translate(0,347)"></path><path d="M258.5,347.5 L258.5,347.5 L258.5,0.5" fill="none" stroke-dasharray="1" stroke-width="1" stroke-opacity="0.15" stroke="#000000"></path></g><g><path d="M422.5,0.5 L422.5,5.5" fill="none" stroke-dasharray="none" stroke-width="1" stroke-opacity="1" stroke="#DADADA" transform="translate(0,347)"></path><path d="M422.5,347.5 L422.5,347.5 L422.5,0.5" fill="none" stroke-dasharray="1" stroke-width="1" stroke-opacity="0.15" stroke="#000000"></path></g></g><g transform="translate(114,20)" visibility="visible"><g><path d="M0.5,347.5 L5.5,347.5" fill="none" stroke-dasharray="none" stroke-width="1" stroke-opacity="0.2" stroke="#000000" transform="translate(-6,0)"></path><path d="M0.5,347.5 L0.5,347.5 L445.5,347.5" fill="none" stroke-dasharray="1" stroke-width="1" stroke-opacity="0.15" stroke="#000000"></path></g><g><path d="M0.5,304.5 L5.5,304.5" fill="none" stroke-dasharray="none" stroke-width="1" stroke-opacity="0.2" stroke="#000000" transform="translate(-6,0)"></path><path d="M0.5,304.5 L0.5,304.5 L445.5,304.5" fill="none" stroke-dasharray="1" stroke-width="1" stroke-opacity="0.15" stroke="#000000"></path></g><g><path d="M0.5,260.5 L5.5,260.5" fill="none" stroke-dasharray="none" stroke-width="1" stroke-opacity="0.2" stroke="#000000" transform="translate(-6,0)"></path><path d="M0.5,260.5 L0.5,260.5 L445.5,260.5" fill="none" stroke-dasharray="1" stroke-width="1" stroke-opacity="0.15" stroke="#000000"></path></g><g><path d="M0.5,217.5 L5.5,217.5" fill="none" stroke-dasharray="none" stroke-width="1" stroke-opacity="0.2" stroke="#000000" transform="translate(-6,0)"></path><path d="M0.5,217.5 L0.5,217.5 L445.5,217.5" fill="none" stroke-dasharray="1" stroke-width="1" stroke-opacity="0.15" stroke="#000000"></path></g><g><path d="M0.5,174.5 L5.5,174.5" fill="none" stroke-dasharray="none" stroke-width="1" stroke-opacity="0.2" stroke="#000000" transform="translate(-6,0)"></path><path d="M0.5,174.5 L0.5,174.5 L445.5,174.5" fill="none" stroke-dasharray="1" stroke-width="1" stroke-opacity="0.15" stroke="#000000"></path></g><g><path d="M0.5,130.5 L5.5,130.5" fill="none" stroke-dasharray="none" stroke-width="1" stroke-opacity="0.2" stroke="#000000" transform="translate(-6,0)"></path><path d="M0.5,130.5 L0.5,130.5 L445.5,130.5" fill="none" stroke-dasharray="1" stroke-width="1" stroke-opacity="0.15" stroke="#000000"></path></g><g><path d="M0.5,87.5 L5.5,87.5" fill="none" stroke-dasharray="none" stroke-width="1" stroke-opacity="0.2" stroke="#000000" transform="translate(-6,0)"></path><path d="M0.5,87.5 L0.5,87.5 L445.5,87.5" fill="none" stroke-dasharray="1" stroke-width="1" stroke-opacity="0.15" stroke="#000000"></path></g><g><path d="M0.5,43.5 L5.5,43.5" fill="none" stroke-dasharray="none" stroke-width="1" stroke-opacity="0.2" stroke="#000000" transform="translate(-6,0)"></path><path d="M0.5,43.5 L0.5,43.5 L445.5,43.5" fill="none" stroke-dasharray="1" stroke-width="1" stroke-opacity="0.15" stroke="#000000"></path></g><g><path d="M0.5,0.5 L5.5,0.5" fill="none" stroke-dasharray="none" stroke-width="1" stroke-opacity="0.2" stroke="#000000" transform="translate(-6,0)"></path><path d="M0.5,0.5 L0.5,0.5 L445.5,0.5" fill="none" stroke-dasharray="1" stroke-width="1" stroke-opacity="0.15" stroke="#000000"></path></g></g></g><g></g><g><g transform="translate(114,20)"><g clip-path="url(#AmChartsEl-119)"><path d="M-11.5,43.5 L12.5,43.5 L35.5,43.5 L59.5,43.5 L82.5,43.5 L105.5,43.5 L129.5,43.5 L152.5,43.5 L176.5,43.5 L199.5,43.5 L223.5,43.5 L246.5,43.5 L269.5,43.5 L293.5,43.5 L316.5,43.5 L340.5,43.5 L363.5,43.5 L386.5,43.5 L410.5,43.5 L433.5,43.5" fill="none" stroke-dasharray="1" stroke-width="2" stroke-opacity="1" stroke="#3B5323"></path></g><g clip-path="url(#AmChartsEl-120)"><path d="M-11.5,43.5 L12.5,43.5 L35.5,43.5 L59.5,43.5 L82.5,43.5 L105.5,43.5 L129.5,43.5 L152.5,43.5 L176.5,43.5 L199.5,43.5 L223.5,43.5 L246.5,43.5 L269.5,43.5 L293.5,43.5 L316.5,43.5 L340.5,43.5 L363.5,43.5 L386.5,43.5 L410.5,43.5 L433.5,43.5" fill="none" stroke-dasharray="1" stroke-width="2" stroke-opacity="1" stroke="#3B5323"></path></g><clipPath id="AmChartsEl-119"><rect x="0" y="0" width="445" height="43" rx="0" ry="0" stroke-width="0"></rect></clipPath><clipPath id="AmChartsEl-120"><rect x="0" y="44" width="445" height="304" rx="0" ry="0" stroke-width="0"></rect></clipPath></g><g transform="translate(114,20)"><g clip-path="url(#AmChartsEl-121)"><path d="M-11.5,43.5 L12.5,43.5 L35.5,43.5 L59.5,43.5 L82.5,43.5 L105.5,43.5 L129.5,43.5 L152.5,43.5 L176.5,43.5 L199.5,43.5 L223.5,43.5 L246.5,43.5 L269.5,43.5 L293.5,43.5 L316.5,43.5 L340.5,43.5 L363.5,43.5 L386.5,43.5 L410.5,43.5 L433.5,43.5" fill="none" stroke-dasharray="1" stroke-width="2" stroke-opacity="1" stroke="#b5030d"></path></g><g clip-path="url(#AmChartsEl-122)"><path d="M-11.5,43.5 L12.5,43.5 L35.5,43.5 L59.5,43.5 L82.5,43.5 L105.5,43.5 L129.5,43.5 L152.5,43.5 L176.5,43.5 L199.5,43.5 L223.5,43.5 L246.5,43.5 L269.5,43.5 L293.5,43.5 L316.5,43.5 L340.5,43.5 L363.5,43.5 L386.5,43.5 L410.5,43.5 L433.5,43.5" fill="none" stroke-dasharray="1" stroke-width="2" stroke-opacity="1" stroke="#b5030d"></path></g><clipPath id="AmChartsEl-121"><rect x="0" y="0" width="445" height="43" rx="0" ry="0" stroke-width="0"></rect></clipPath><clipPath id="AmChartsEl-122"><rect x="0" y="44" width="445" height="304" rx="0" ry="0" stroke-width="0"></rect></clipPath></g><g transform="translate(114,20)"><g clip-path="url(#AmChartsEl-123)"><path d="M-11.5,43.5 L12.5,43.5 L35.5,43.5 L59.5,43.5 L82.5,43.5 L105.5,43.5 L129.5,43.5 L152.5,43.5 L176.5,44.5 L199.5,44.5 L223.5,44.5 L246.5,45.5 L269.5,46.5 L293.5,48.5 L316.5,52.5 L340.5,61.5 L363.5,80.5 L386.5,116.5 L410.5,188.5 L433.5,333.5" fill="none" stroke-dasharray="1" stroke-width="2" stroke-opacity="1" stroke="#495E88"></path></g><g clip-path="url(#AmChartsEl-124)"><path d="M-11.5,43.5 L12.5,43.5 L35.5,43.5 L59.5,43.5 L82.5,43.5 L105.5,43.5 L129.5,43.5 L152.5,43.5 L176.5,44.5 L199.5,44.5 L223.5,44.5 L246.5,45.5 L269.5,46.5 L293.5,48.5 L316.5,52.5 L340.5,61.5 L363.5,80.5 L386.5,116.5 L410.5,188.5 L433.5,333.5" fill="none" stroke-dasharray="1" stroke-width="2" stroke-opacity="1" stroke="#495E88"></path></g><clipPath id="AmChartsEl-123"><rect x="0" y="0" width="445" height="43" rx="0" ry="0" stroke-width="0"></rect></clipPath><clipPath id="AmChartsEl-124"><rect x="0" y="44" width="445" height="304" rx="0" ry="0" stroke-width="0"></rect></clipPath></g></g><g clip-path="url(#AmChartsEl-118)"></g><g><g transform="translate(114,20)"><text y="6.5" fill="#000000" font-family="Verdana" font-size="11" text-anchor="start" transform="translate(97,360)">Dec 20</text><text y="6.5" fill="#000000" font-family="Verdana" font-size="11" text-anchor="start" transform="translate(261,360)">Dec 27</text><text y="6.5" fill="#000000" font-family="Verdana" font-size="11" font-weight="bold" text-anchor="start" transform="translate(425,360)">Jan</text></g><g transform="translate(114,20)" visibility="visible"><text y="6.5" fill="#000000" font-family="Verdana" font-size="11" text-anchor="end" transform="translate(-12,345)">-7,000,000,000</text><text y="6.5" fill="#000000" font-family="Verdana" font-size="11" text-anchor="end" transform="translate(-12,302)">-6,000,000,000</text><text y="6.5" fill="#000000" font-family="Verdana" font-size="11" text-anchor="end" transform="translate(-12,258)">-5,000,000,000</text><text y="6.5" fill="#000000" font-family="Verdana" font-size="11" text-anchor="end" transform="translate(-12,215)">-4,000,000,000</text><text y="6.5" fill="#000000" font-family="Verdana" font-size="11" text-anchor="end" transform="translate(-12,172)">-3,000,000,000</text><text y="6.5" fill="#000000" font-family="Verdana" font-size="11" text-anchor="end" transform="translate(-12,128)">-2,000,000,000</text><text y="6.5" fill="#000000" font-family="Verdana" font-size="11" text-anchor="end" transform="translate(-12,85)">-1,000,000,000</text><text y="6.5" fill="#000000" font-family="Verdana" font-size="11" text-anchor="end" transform="translate(-12,41)">0</text><text y="6.5" fill="#000000" font-family="Verdana" font-size="11" text-anchor="end" transform="translate(-12,-2)">1,000,000,000</text></g></g><g><path d="M0.5,0.5 L445.5,0.5" fill="none" stroke-dasharray="none" stroke-width="1" stroke-opacity="1" stroke="#DADADA" transform="translate(114,367)"></path><path d="M0.5,0.5 L0.5,347.5" fill="none" stroke-dasharray="none" stroke-width="1" stroke-opacity="0.2" stroke="#000000" transform="translate(114,20)" visibility="visible"></path><path d="M0.5,43.5 L445.5,43.5 L445.5,43.5" fill="none" stroke-dasharray="1" stroke-width="1" stroke-opacity="0.3" stroke="#000000" transform="translate(114,20)"></path></g><g><g transform="translate(114,20)" visibility="hidden"><path d="M0.5,0.5 L0.5,0.5 L0.5,346.5" fill="none" stroke-dasharray="none" stroke-width="1" stroke-opacity="1" stroke="#CC0000" visibility="hidden"></path></g></g><g></g><g><g transform="translate(114,20)"><circle r="4" cx="0" cy="0" fill="#3B5323" stroke="#FFFFFF" fill-opacity="1" stroke-width="2" stroke-opacity="1" transform="translate(12,43)"></circle><circle r="4" cx="0" cy="0" fill="#3B5323" stroke="#FFFFFF" fill-opacity="1" stroke-width="2" stroke-opacity="1" transform="translate(35,43)"></circle><circle r="4" cx="0" cy="0" fill="#3B5323" stroke="#FFFFFF" fill-opacity="1" stroke-width="2" stroke-opacity="1" transform="translate(59,43)"></circle><circle r="4" cx="0" cy="0" fill="#3B5323" stroke="#FFFFFF" fill-opacity="1" stroke-width="2" stroke-opacity="1" transform="translate(82,43)"></circle><circle r="4" cx="0" cy="0" fill="#3B5323" stroke="#FFFFFF" fill-opacity="1" stroke-width="2" stroke-opacity="1" transform="translate(105,43)"></circle><circle r="4" cx="0" cy="0" fill="#3B5323" stroke="#FFFFFF" fill-opacity="1" stroke-width="2" stroke-opacity="1" transform="translate(129,43)"></circle><circle r="4" cx="0" cy="0" fill="#3B5323" stroke="#FFFFFF" fill-opacity="1" stroke-width="2" stroke-opacity="1" transform="translate(152,43)"></circle><circle r="4" cx="0" cy="0" fill="#3B5323" stroke="#FFFFFF" fill-opacity="1" stroke-width="2" stroke-opacity="1" transform="translate(176,43)"></circle><circle r="4" cx="0" cy="0" fill="#3B5323" stroke="#FFFFFF" fill-opacity="1" stroke-width="2" stroke-opacity="1" transform="translate(199,43)"></circle><circle r="4" cx="0" cy="0" fill="#3B5323" stroke="#FFFFFF" fill-opacity="1" stroke-width="2" stroke-opacity="1" transform="translate(223,43)"></circle><circle r="4" cx="0" cy="0" fill="#3B5323" stroke="#FFFFFF" fill-opacity="1" stroke-width="2" stroke-opacity="1" transform="translate(246,43)"></circle><circle r="4" cx="0" cy="0" fill="#3B5323" stroke="#FFFFFF" fill-opacity="1" stroke-width="2" stroke-opacity="1" transform="translate(269,43)"></circle><circle r="4" cx="0" cy="0" fill="#3B5323" stroke="#FFFFFF" fill-opacity="1" stroke-width="2" stroke-opacity="1" transform="translate(293,43)"></circle><circle r="4" cx="0" cy="0" fill="#3B5323" stroke="#FFFFFF" fill-opacity="1" stroke-width="2" stroke-opacity="1" transform="translate(316,43)"></circle><circle r="4" cx="0" cy="0" fill="#3B5323" stroke="#FFFFFF" fill-opacity="1" stroke-width="2" stroke-opacity="1" transform="translate(340,43)"></circle><circle r="4" cx="0" cy="0" fill="#3B5323" stroke="#FFFFFF" fill-opacity="1" stroke-width="2" stroke-opacity="1" transform="translate(363,43)"></circle><circle r="4" cx="0" cy="0" fill="#3B5323" stroke="#FFFFFF" fill-opacity="1" stroke-width="2" stroke-opacity="1" transform="translate(386,43)"></circle><circle r="4" cx="0" cy="0" fill="#3B5323" stroke="#FFFFFF" fill-opacity="1" stroke-width="2" stroke-opacity="1" transform="translate(410,43)"></circle><circle r="4" cx="0" cy="0" fill="#3B5323" stroke="#FFFFFF" fill-opacity="1" stroke-width="2" stroke-opacity="1" transform="translate(433,43)"></circle></g><g transform="translate(114,20)"><circle r="4" cx="0" cy="0" fill="#b5030d" stroke="#FFFFFF" fill-opacity="1" stroke-width="2" stroke-opacity="1" transform="translate(12,43)"></circle><circle r="4" cx="0" cy="0" fill="#b5030d" stroke="#FFFFFF" fill-opacity="1" stroke-width="2" stroke-opacity="1" transform="translate(35,43)"></circle><circle r="4" cx="0" cy="0" fill="#b5030d" stroke="#FFFFFF" fill-opacity="1" stroke-width="2" stroke-opacity="1" transform="translate(59,43)"></circle><circle r="4" cx="0" cy="0" fill="#b5030d" stroke="#FFFFFF" fill-opacity="1" stroke-width="2" stroke-opacity="1" transform="translate(82,43)"></circle><circle r="4" cx="0" cy="0" fill="#b5030d" stroke="#FFFFFF" fill-opacity="1" stroke-width="2" stroke-opacity="1" transform="translate(105,43)"></circle><circle r="4" cx="0" cy="0" fill="#b5030d" stroke="#FFFFFF" fill-opacity="1" stroke-width="2" stroke-opacity="1" transform="translate(129,43)"></circle><circle r="4" cx="0" cy="0" fill="#b5030d" stroke="#FFFFFF" fill-opacity="1" stroke-width="2" stroke-opacity="1" transform="translate(152,43)"></circle><circle r="4" cx="0" cy="0" fill="#b5030d" stroke="#FFFFFF" fill-opacity="1" stroke-width="2" stroke-opacity="1" transform="translate(176,43)"></circle><circle r="4" cx="0" cy="0" fill="#b5030d" stroke="#FFFFFF" fill-opacity="1" stroke-width="2" stroke-opacity="1" transform="translate(199,43)"></circle><circle r="4" cx="0" cy="0" fill="#b5030d" stroke="#FFFFFF" fill-opacity="1" stroke-width="2" stroke-opacity="1" transform="translate(223,43)"></circle><circle r="4" cx="0" cy="0" fill="#b5030d" stroke="#FFFFFF" fill-opacity="1" stroke-width="2" stroke-opacity="1" transform="translate(246,43)"></circle><circle r="4" cx="0" cy="0" fill="#b5030d" stroke="#FFFFFF" fill-opacity="1" stroke-width="2" stroke-opacity="1" transform="translate(269,43)"></circle><circle r="4" cx="0" cy="0" fill="#b5030d" stroke="#FFFFFF" fill-opacity="1" stroke-width="2" stroke-opacity="1" transform="translate(293,43)"></circle><circle r="4" cx="0" cy="0" fill="#b5030d" stroke="#FFFFFF" fill-opacity="1" stroke-width="2" stroke-opacity="1" transform="translate(316,43)"></circle><circle r="4" cx="0" cy="0" fill="#b5030d" stroke="#FFFFFF" fill-opacity="1" stroke-width="2" stroke-opacity="1" transform="translate(340,43)"></circle><circle r="4" cx="0" cy="0" fill="#b5030d" stroke="#FFFFFF" fill-opacity="1" stroke-width="2" stroke-opacity="1" transform="translate(363,43)"></circle><circle r="4" cx="0" cy="0" fill="#b5030d" stroke="#FFFFFF" fill-opacity="1" stroke-width="2" stroke-opacity="1" transform="translate(386,43)"></circle><circle r="4" cx="0" cy="0" fill="#b5030d" stroke="#FFFFFF" fill-opacity="1" stroke-width="2" stroke-opacity="1" transform="translate(410,43)"></circle><circle r="4" cx="0" cy="0" fill="#b5030d" stroke="#FFFFFF" fill-opacity="1" stroke-width="2" stroke-opacity="1" transform="translate(433,43)"></circle></g><g transform="translate(114,20)"><circle r="4" cx="0" cy="0" fill="#495E88" stroke="#FFFFFF" fill-opacity="1" stroke-width="2" stroke-opacity="1" transform="translate(12,43)"></circle><circle r="4" cx="0" cy="0" fill="#495E88" stroke="#FFFFFF" fill-opacity="1" stroke-width="2" stroke-opacity="1" transform="translate(35,43)"></circle><circle r="4" cx="0" cy="0" fill="#495E88" stroke="#FFFFFF" fill-opacity="1" stroke-width="2" stroke-opacity="1" transform="translate(59,43)"></circle><circle r="4" cx="0" cy="0" fill="#495E88" stroke="#FFFFFF" fill-opacity="1" stroke-width="2" stroke-opacity="1" transform="translate(82,43)"></circle><circle r="4" cx="0" cy="0" fill="#495E88" stroke="#FFFFFF" fill-opacity="1" stroke-width="2" stroke-opacity="1" transform="translate(105,43)"></circle><circle r="4" cx="0" cy="0" fill="#495E88" stroke="#FFFFFF" fill-opacity="1" stroke-width="2" stroke-opacity="1" transform="translate(129,43)"></circle><circle r="4" cx="0" cy="0" fill="#495E88" stroke="#FFFFFF" fill-opacity="1" stroke-width="2" stroke-opacity="1" transform="translate(152,43)"></circle><circle r="4" cx="0" cy="0" fill="#495E88" stroke="#FFFFFF" fill-opacity="1" stroke-width="2" stroke-opacity="1" transform="translate(176,44)"></circle><circle r="4" cx="0" cy="0" fill="#495E88" stroke="#FFFFFF" fill-opacity="1" stroke-width="2" stroke-opacity="1" transform="translate(199,44)"></circle><circle r="4" cx="0" cy="0" fill="#495E88" stroke="#FFFFFF" fill-opacity="1" stroke-width="2" stroke-opacity="1" transform="translate(223,44)"></circle><circle r="4" cx="0" cy="0" fill="#495E88" stroke="#FFFFFF" fill-opacity="1" stroke-width="2" stroke-opacity="1" transform="translate(246,45)"></circle><circle r="4" cx="0" cy="0" fill="#495E88" stroke="#FFFFFF" fill-opacity="1" stroke-width="2" stroke-opacity="1" transform="translate(269,46)"></circle><circle r="4" cx="0" cy="0" fill="#495E88" stroke="#FFFFFF" fill-opacity="1" stroke-width="2" stroke-opacity="1" transform="translate(293,48)"></circle><circle r="4" cx="0" cy="0" fill="#495E88" stroke="#FFFFFF" fill-opacity="1" stroke-width="2" stroke-opacity="1" transform="translate(316,52)"></circle><circle r="4" cx="0" cy="0" fill="#495E88" stroke="#FFFFFF" fill-opacity="1" stroke-width="2" stroke-opacity="1" transform="translate(340,61)"></circle><circle r="4" cx="0" cy="0" fill="#495E88" stroke="#FFFFFF" fill-opacity="1" stroke-width="2" stroke-opacity="1" transform="translate(363,80)"></circle><circle r="4" cx="0" cy="0" fill="#495E88" stroke="#FFFFFF" fill-opacity="1" stroke-width="2" stroke-opacity="1" transform="translate(386,116)"></circle><circle r="4" cx="0" cy="0" fill="#495E88" stroke="#FFFFFF" fill-opacity="1" stroke-width="2" stroke-opacity="1" transform="translate(410,188)"></circle><circle r="4" cx="0" cy="0" fill="#495E88" stroke="#FFFFFF" fill-opacity="1" stroke-width="2" stroke-opacity="1" transform="translate(433,333)"></circle></g></g><g><g></g></g><g></g><g></g><g><g><rect x="0.5" y="0.5" width="145" height="20" rx="0" ry="0" stroke-width="0" fill="#FFFFFF" stroke="#FFFFFF" fill-opacity="1" stroke-opacity="1"></rect><text y="6.5" fill="#000000" font-family="Verdana" font-size="11" text-anchor="start" transform="translate(5,8)">chart by amcharts.com</text></g></g><clipPath id="AmChartsEl-118"><rect x="114" y="20" width="445" height="347" rx="0" ry="0" stroke-width="0"></rect></clipPath></svg>